<?xml version="1.0" encoding="UTF-8" standalone="no"?>
<!-- Created with Inkscape (http://www.inkscape.org/) -->

<svg
   xmlns:dc="http://purl.org/dc/elements/1.1/"
   xmlns:cc="http://creativecommons.org/ns#"
   xmlns:rdf="http://www.w3.org/1999/02/22-rdf-syntax-ns#"
   xmlns:svg="http://www.w3.org/2000/svg"
   xmlns="http://www.w3.org/2000/svg"
   xmlns:sodipodi="http://sodipodi.sourceforge.net/DTD/sodipodi-0.dtd"
   xmlns:inkscape="http://www.inkscape.org/namespaces/inkscape"
   width="297mm"
   height="210mm"
   id="svg2985"
   version="1.1"
   inkscape:version="0.48.2 r9819"
   sodipodi:docname="baseline-2d.svg">
  <sodipodi:namedview
     inkscape:document-units="mm"
     pagecolor="#ffffff"
     bordercolor="#666666"
     borderopacity="1.0"
     inkscape:pageopacity="0.0"
     inkscape:pageshadow="2"
     inkscape:zoom="1.9368872"
     inkscape:cx="540.71498"
     inkscape:cy="453.78327"
     inkscape:current-layer="layer1"
     id="namedview2989"
     showgrid="false"
     inkscape:object-paths="true"
     inkscape:window-width="1920"
     inkscape:window-height="1152"
     inkscape:window-x="0"
     inkscape:window-y="0"
     inkscape:window-maximized="0"
     inkscape:snap-global="false">
    <inkscape:grid
       type="xygrid"
       id="grid2994" />
  </sodipodi:namedview>
  <defs
     id="defs2987">
    <inkscape:path-effect
       effect="skeletal"
       id="path-effect5620"
       is_visible="true"
       pattern="m 81.574187,222.0057 1,0"
       copytype="single_stretched"
       prop_scale="1"
       scale_y_rel="false"
       spacing="0"
       normal_offset="0"
       tang_offset="0"
       prop_units="false"
       vertical_pattern="false"
       fuse_tolerance="0" />
    <inkscape:path-effect
       fuse_tolerance="0"
       vertical_pattern="false"
       prop_units="false"
       tang_offset="0"
       normal_offset="0"
       spacing="0"
       scale_y_rel="false"
       prop_scale="1"
       copytype="single_stretched"
       pattern="m -299.44955,222.52199 1,0"
       is_visible="true"
       id="path-effect5616"
       effect="skeletal" />
    <inkscape:path-effect
       fuse_tolerance="0"
       vertical_pattern="false"
       prop_units="false"
       tang_offset="0"
       normal_offset="0"
       spacing="0"
       scale_y_rel="false"
       prop_scale="1"
       copytype="single_stretched"
       pattern="m 133.71971,179.15344 1,0"
       is_visible="true"
       id="path-effect5612"
       effect="skeletal" />
    <inkscape:path-effect
       effect="skeletal"
       id="path-effect5608"
       is_visible="true"
       pattern="M 0,0 1,0"
       copytype="single_stretched"
       prop_scale="1"
       scale_y_rel="false"
       spacing="0"
       normal_offset="0"
       tang_offset="0"
       prop_units="false"
       vertical_pattern="false"
       fuse_tolerance="0" />
    <inkscape:path-effect
       fuse_tolerance="0"
       vertical_pattern="false"
       prop_units="false"
       tang_offset="0"
       normal_offset="0"
       spacing="0"
       scale_y_rel="false"
       prop_scale="1"
       copytype="single_stretched"
       pattern="m 88.285988,107.38881 1,0"
       is_visible="true"
       id="path-effect5305"
       effect="skeletal" />
    <marker
       inkscape:stockid="Arrow1Mend"
       orient="auto"
       refY="0.0"
       refX="0.0"
       id="Arrow1Mend"
       style="overflow:visible;">
      <path
         id="path4273"
         d="M 0.0,0.0 L 5.0,-5.0 L -12.5,0.0 L 5.0,5.0 L 0.0,0.0 z "
         style="fill-rule:evenodd;stroke:#000000;stroke-width:1.0pt;marker-start:none;"
         transform="scale(0.4) rotate(180) translate(10,0)" />
    </marker>
    <marker
       inkscape:stockid="Arrow1Mstart"
       orient="auto"
       refY="0.0"
       refX="0.0"
       id="Arrow1Mstart"
       style="overflow:visible">
      <path
         id="path4270"
         d="M 0.0,0.0 L 5.0,-5.0 L -12.5,0.0 L 5.0,5.0 L 0.0,0.0 z "
         style="fill-rule:evenodd;stroke:#000000;stroke-width:1.0pt;marker-start:none"
         transform="scale(0.4) translate(10,0)" />
    </marker>
    <inkscape:path-effect
       effect="skeletal"
       id="path-effect3455"
       is_visible="true"
       pattern="m 4.1303385,1.548877 1,0"
       copytype="single_stretched"
       prop_scale="1"
       scale_y_rel="false"
       spacing="0"
       normal_offset="0"
       tang_offset="0"
       prop_units="false"
       vertical_pattern="false"
       fuse_tolerance="0" />
    <inkscape:path-effect
       fuse_tolerance="0"
       vertical_pattern="false"
       prop_units="false"
       tang_offset="0"
       normal_offset="0"
       spacing="0"
       scale_y_rel="false"
       prop_scale="1"
       copytype="single_stretched"
       pattern="m 2.5323066,-9.2248313 1,0"
       is_visible="true"
       id="path-effect8641"
       effect="skeletal" />
    <marker
       inkscape:stockid="Arrow2Lend"
       orient="auto"
       refY="0.0"
       refX="0.0"
       id="Arrow2Lend"
       style="overflow:visible;">
      <path
         id="path3816"
         style="font-size:12.0;fill-rule:evenodd;stroke-width:0.62500000;stroke-linejoin:round;"
         d="M 8.7185878,4.0337352 L -2.2072895,0.016013256 L 8.7185884,-4.0017078 C 6.9730900,-1.6296469 6.9831476,1.6157441 8.7185878,4.0337352 z "
         transform="scale(1.1) rotate(180) translate(1,0)" />
    </marker>
    <marker
       inkscape:stockid="Arrow2Lstart"
       orient="auto"
       refY="0.0"
       refX="0.0"
       id="Arrow2Lstart"
       style="overflow:visible">
      <path
         id="path3813"
         style="font-size:12.0;fill-rule:evenodd;stroke-width:0.62500000;stroke-linejoin:round"
         d="M 8.7185878,4.0337352 L -2.2072895,0.016013256 L 8.7185884,-4.0017078 C 6.9730900,-1.6296469 6.9831476,1.6157441 8.7185878,4.0337352 z "
         transform="scale(1.1) translate(1,0)" />
    </marker>
    <marker
       inkscape:stockid="Arrow1Lstart"
       orient="auto"
       refY="0.0"
       refX="0.0"
       id="Arrow1Lstart"
       style="overflow:visible">
      <path
         id="path3795"
         d="M 0.0,0.0 L 5.0,-5.0 L -12.5,0.0 L 5.0,5.0 L 0.0,0.0 z "
         style="fill-rule:evenodd;stroke:#000000;stroke-width:1.0pt;marker-start:none"
         transform="scale(0.8) translate(12.5,0)" />
    </marker>
    <marker
       inkscape:stockid="Arrow1Lend"
       orient="auto"
       refY="0.0"
       refX="0.0"
       id="Arrow1Lend"
       style="overflow:visible;">
      <path
         id="path3798"
         d="M 0.0,0.0 L 5.0,-5.0 L -12.5,0.0 L 5.0,5.0 L 0.0,0.0 z "
         style="fill-rule:evenodd;stroke:#000000;stroke-width:1.0pt;marker-start:none;"
         transform="scale(0.8) rotate(180) translate(12.5,0)" />
    </marker>
    <marker
       inkscape:stockid="Arrow1Lend"
       orient="auto"
       refY="0"
       refX="0"
       id="Arrow1Lend-9"
       style="overflow:visible">
      <path
         inkscape:connector-curvature="0"
         id="path3798-3"
         d="M 0,0 5,-5 -12.5,0 5,5 0,0 z"
         style="fill-rule:evenodd;stroke:#000000;stroke-width:1pt;marker-start:none"
         transform="matrix(-0.8,0,0,-0.8,-10,0)" />
    </marker>
    <marker
       inkscape:stockid="Arrow1Lend"
       orient="auto"
       refY="0"
       refX="0"
       id="Arrow1Lend-3"
       style="overflow:visible">
      <path
         inkscape:connector-curvature="0"
         id="path3798-33"
         d="M 0,0 5,-5 -12.5,0 5,5 0,0 z"
         style="fill-rule:evenodd;stroke:#000000;stroke-width:1pt;marker-start:none"
         transform="matrix(-0.8,0,0,-0.8,-10,0)" />
    </marker>
  </defs>
  <metadata
     id="metadata2991">
    <rdf:RDF>
      <cc:Work
         rdf:about="">
        <dc:format>image/svg+xml</dc:format>
        <dc:type
           rdf:resource="http://purl.org/dc/dcmitype/StillImage" />
        <dc:title></dc:title>
      </cc:Work>
    </rdf:RDF>
  </metadata>
  <g
     inkscape:label="Layer 1"
     inkscape:groupmode="layer"
     id="layer1">
    <path
       sodipodi:type="arc"
       style="fill:none;stroke:#000000;stroke-width:1.77165353;stroke-linejoin:bevel;stroke-miterlimit:4;stroke-opacity:1;stroke-dasharray:none;stroke-dashoffset:0"
       id="path3002"
       sodipodi:cx="191.28224"
       sodipodi:cy="400.96964"
       sodipodi:rx="26.950417"
       sodipodi:ry="9.2025862"
       d="m 218.23266,400.96964 a 26.950417,9.2025862 0 1 1 -53.90083,0 26.950417,9.2025862 0 1 1 53.90083,0 z"
       transform="translate(169.04958,23.202586)" />
    <path
       transform="translate(549.76734,23.124847)"
       sodipodi:type="arc"
       style="fill:none;stroke:#000000;stroke-width:1.77165353;stroke-linejoin:bevel;stroke-miterlimit:4;stroke-opacity:1;stroke-dasharray:none;stroke-dashoffset:0"
       id="path3002-5"
       sodipodi:cx="191.28224"
       sodipodi:cy="400.96964"
       sodipodi:rx="26.950417"
       sodipodi:ry="9.2025862"
       d="m 218.23266,400.96964 a 26.950417,9.2025862 0 1 1 -53.90083,0 26.950417,9.2025862 0 1 1 53.90083,0 z" />
    <path
       style="fill:none;stroke:#000000;stroke-width:1.77165353;stroke-linejoin:bevel;stroke-miterlimit:4;stroke-opacity:1;stroke-dasharray:none;stroke-dashoffset:0;marker-end:url(#Arrow1Lend)"
       d="M 560,184.09448 737.28284,420.48043"
       id="path3790"
       inkscape:connector-curvature="0" />
    <path
       style="fill:none;stroke:#000000;stroke-width:1.77165353;stroke-linejoin:bevel;stroke-miterlimit:4;stroke-opacity:1;stroke-dasharray:none;stroke-dashoffset:0;marker-end:url(#Arrow1Lend)"
       d="m 263.2354,293.78684 92.43295,123.52841"
       id="path3790-7"
       inkscape:connector-curvature="0" />
    <path
       style="fill:none;stroke:#000000;stroke-width:1.77165353;stroke-linejoin:bevel;stroke-miterlimit:4;stroke-opacity:1;stroke-dasharray:none;stroke-dashoffset:0;marker-start:url(#Arrow1Lstart);marker-end:none"
       d="m 334.68701,126.3797 100,140"
       id="path3790-7-8"
       inkscape:connector-curvature="0"
       sodipodi:nodetypes="cc" />
    <path
       style="fill:none;stroke:#000000;stroke-width:1.77165353;stroke-linejoin:bevel;stroke-miterlimit:4;stroke-opacity:1;stroke-dasharray:none;stroke-dashoffset:0;marker-start:url(#Arrow2Lstart);marker-end:none"
       d="m 362.55366,455.51302 372.79971,0"
       id="path4850"
       inkscape:connector-curvature="0" />
    <path
       style="fill:none;stroke:#000000;stroke-width:1.77165353;stroke-linejoin:bevel;stroke-miterlimit:4;stroke-opacity:1;stroke-dasharray:7.08661413, 1.77165353;stroke-dashoffset:0"
       d="M 358.96134,422.5365 607.20833,246.86581"
       id="path4852"
       inkscape:connector-curvature="0"
       sodipodi:nodetypes="cc" />
    <g
       transform="matrix(0.5674955,0,0,0.65165357,359.96144,263.08652)"
       id="g5501">
      <g
         style="font-style:normal;font-variant:normal;font-weight:normal;font-stretch:normal;letter-spacing:normal;word-spacing:normal;text-anchor:start;fill:none;stroke:#000000;stroke-width:1.09182572;stroke-linecap:butt;stroke-linejoin:miter;stroke-miterlimit:10.43299961;stroke-opacity:1;stroke-dasharray:none;stroke-dashoffset:0"
         word-spacing="normal"
         letter-spacing="normal"
         font-size-adjust="none"
         font-stretch="normal"
         font-weight="normal"
         font-variant="normal"
         font-style="normal"
         stroke-miterlimit="10.433"
         xml:space="preserve"
         transform="matrix(1.0629921,0,0,-1.0629921,-186.02362,789.27165)"
         id="g5503"><path
           style="fill:#000000;stroke-width:0"
           inkscape:connector-curvature="0"
           id="path5505"
           d="m 463.64,409.54 -0.01,-0.07 -0.02,-0.07 -0.02,-0.06 -0.02,-0.06 -0.01,-0.06 -0.02,-0.05 -0.02,-0.05 -0.01,-0.05 -0.02,-0.04 -0.02,-0.04 -0.02,-0.04 -0.02,-0.03 -0.02,-0.04 -0.03,-0.03 -0.02,-0.02 -0.03,-0.03 -0.03,-0.02 -0.03,-0.02 -0.03,-0.02 -0.04,-0.02 -0.04,-0.01 -0.04,-0.02 -0.05,-0.01 -0.05,-0.01 -0.05,-0.01 -0.06,-0.02 -0.06,-0.01 -0.06,0 -0.07,-0.01 -0.03,-0.01 -0.04,0 -0.04,-0.01 -0.04,0 -0.04,-0.01 -0.04,0 c -0.85,-0.05 -1.85,-0.05 -2.64,-0.05 -1.28,0 -1.39,0 -1.6,-0.11 -0.59,-0.34 -0.59,-1.14 -0.59,-1.34 0,-0.89 0.91,-0.89 1.7,-0.89 h 21.11 c 10.42,0 15.11,6.58 15.11,11.01 0,4.29 -3.75,6.43 -8.33,6.83 7.97,1.44 10.82,6.08 10.82,9.41 0,4.09 -3.6,6.92 -10.61,6.92 l -1.14,-2.34 c 0.98,0 5.03,0 5.03,-4.33 0,-3.49 -2.8,-8.81 -9.58,-8.81 h -7.86 l -0.45,-1.8 h 9.72 c 1.29,0 5.46,0 5.46,-5.08 0,-3.84 -2.53,-9.47 -9.6,-9.47 h -7.97 c -0.75,0 -0.85,0 -1.21,0.05 l 3.6,14.5 0.45,1.8 3.08,12.25 c 0.2,0.75 0.25,0.79 0.55,0.84 0.45,0.05 0.79,0.05 1.34,0.05 h 7.44 l 1.14,2.34 h -19.99 c -1,0 -1.84,0 -1.84,-1.44 0,-0.9 0.66,-0.9 2.09,-0.9 1.05,0 2,-0.05 3.05,-0.1 z" /><path
           style="fill:#000000;stroke-width:0"
           inkscape:connector-curvature="0"
           id="path5507"
           d="m 512.62,420.4 0,0.06 0,0.05 0,0.06 0,0.05 0,0.05 0,0.04 -0.01,0.05 0,0.04 0,0.05 -0.01,0.04 0,0.04 -0.01,0.04 0,0.03 -0.01,0.04 -0.02,0.07 -0.02,0.06 -0.02,0.05 -0.02,0.06 -0.03,0.04 -0.03,0.05 -0.04,0.03 -0.04,0.04 -0.04,0.03 -0.05,0.03 -0.05,0.02 -0.06,0.02 -0.06,0.02 -0.07,0.01 -0.07,0.01 -0.08,0.01 -0.08,0.01 -0.09,0.01 -0.09,0 -0.1,0.01 -0.05,0 -0.06,0 -0.05,0 -0.06,0 -0.06,0 -0.06,0 -0.06,0 -0.07,0 -0.06,0 -0.07,0 c -2.17,-1.75 -5.03,-2.23 -7.81,-2.23 h -0.84 v -1.96 h 0.84 c 1.39,0 3.51,0.25 4.98,0.74 v -17.46 h -5.5 v -1.95 c 1.71,0.14 5.88,0.14 7.77,0.14 1.25,0 2.5,-0.03 3.76,-0.03 1.05,0 2.86,-0.05 3.86,-0.11 v 1.95 h -5.36 z" /><path
           style="fill:#000000;stroke-width:0"
           inkscape:connector-curvature="0"
           id="path5509"
           d="m 541.42,406.7 h -2.2 c -0.07,-0.41 -0.38,-2.89 -1,-3.03 -0.74,-0.13 -2.83,-0.13 -3.63,-0.13 h -4.78 c 1.92,1.42 3.87,2.85 5.89,4.14 2.83,1.82 5.72,3.66 5.72,7.14 0,4.19 -3.94,6.8 -9.49,6.8 -4.73,0 -8.28,-1.84 -8.28,-5.16 0,-2.01 1.63,-2.75 2.67,-2.75 1.27,0 2.72,0.86 2.72,2.72 0,1.68 -1.28,2.36 -1.39,2.41 1.25,0.8 2.86,0.83 3.28,0.83 2.96,0 5.3,-1.88 5.3,-4.88 0,-2.68 -1.81,-4.92 -3.84,-6.68 l -8.29,-7.36 c -0.42,-0.43 -0.45,-0.46 -0.45,-1.14 v -0.85 h 16.58 z" /></g>    </g>
    <path
       inkscape:connector-curvature="0"
       id="path5846"
       d="M 358.70497,422.36778 740,424.09448"
       style="fill:none;stroke:#000000;stroke-width:1.77165353;stroke-linejoin:miter;stroke-miterlimit:4;stroke-opacity:1;stroke-dasharray:7.08661413,1.77165353;stroke-dashoffset:0" />
    <text
       sodipodi:linespacing="125%"
       id="text5850"
       y="447.54407"
       x="212.02628"
       style="font-size:24px;font-style:normal;font-variant:normal;font-weight:normal;font-stretch:normal;text-align:start;line-height:125%;letter-spacing:0px;word-spacing:0px;writing-mode:lr-tb;text-anchor:start;fill:#000000;fill-opacity:1;stroke:none;font-family:Luxi Sans;-inkscape-font-specification:Luxi Sans"
       xml:space="preserve"><tspan
         y="447.54407"
         x="212.02628"
         id="tspan5852"
         sodipodi:role="line">Collector 1</tspan></text>
    <text
       sodipodi:linespacing="125%"
       id="text5854"
       y="450.93799"
       x="775.38611"
       style="font-size:24px;font-style:normal;font-variant:normal;font-weight:normal;font-stretch:normal;text-align:start;line-height:125%;letter-spacing:0px;word-spacing:0px;writing-mode:lr-tb;text-anchor:start;fill:#000000;fill-opacity:1;stroke:none;font-family:Luxi Sans;-inkscape-font-specification:Luxi Sans"
       xml:space="preserve"><tspan
         y="450.93799"
         x="775.38611"
         id="tspan5856"
         sodipodi:role="line">Collector 2</tspan></text>
    <text
       sodipodi:linespacing="125%"
       id="text5864"
       y="84.77005"
       x="265.48108"
       style="font-size:24px;font-style:normal;font-variant:normal;font-weight:normal;font-stretch:normal;text-align:start;line-height:125%;letter-spacing:0px;word-spacing:0px;writing-mode:lr-tb;text-anchor:start;fill:#000000;fill-opacity:1;stroke:none;font-family:Luxi Sans;-inkscape-font-specification:Luxi Sans"
       xml:space="preserve"><tspan
         y="84.77005"
         x="265.48108"
         id="tspan5866"
         sodipodi:role="line">To star</tspan></text>
    <g
       id="g11386"
       transform="matrix(0.64249479,0,0,0.64249479,194.81728,-46.535186)">
      <g
         word-spacing="normal"
         letter-spacing="normal"
         font-size-adjust="none"
         font-stretch="normal"
         font-weight="normal"
         font-variant="normal"
         font-style="normal"
         stroke-miterlimit="10.433"
         xml:space="preserve"
         transform="matrix(1.0629921,0,0,-1.0629921,-186.02362,789.27165)"
         id="g11388"
         style="font-style:normal;font-variant:normal;font-weight:normal;font-stretch:normal;letter-spacing:normal;word-spacing:normal;text-anchor:start;fill:none;stroke:#000000;stroke-linecap:butt;stroke-linejoin:miter;stroke-miterlimit:10.43299961;stroke-opacity:1;stroke-dasharray:none;stroke-dashoffset:0"><polygon
           id="polygon11390"
           points="478.94,452.78 471.12,446.5 472.52,444.56 478.94,448.68 485.36,444.61 486.77,446.45 "
           style="fill:#000000;stroke-width:0" /><path
           id="path11392"
           d="m 490.89,439.48 0.01,0.01 0,0.01 0,0.01 0,0.01 0.01,0.02 0.01,0.02 0,0.03 0.01,0.03 0.01,0.03 0.01,0.04 0,0.03 0.01,0.04 0.01,0.04 0.01,0.04 0.02,0.08 0.01,0.08 0.02,0.08 0.01,0.04 0.01,0.04 0,0.03 0.01,0.04 0.01,0.04 0,0.03 0.01,0.03 0,0.03 0.01,0.03 0,0.02 0,0.01 0,0.01 0.01,0.01 0,0.01 0,0.01 0,0.01 0,0 0,0.01 c 0,0.64 -0.55,0.75 -0.91,0.75 -0.34,0 -0.44,0 -1.09,-0.61 l -2.74,-2.28 c -1.95,1.98 -4.59,2.89 -7.92,2.89 -9.22,0 -13.75,-7.12 -13.75,-12.22 0,-2.64 1.19,-4.53 2.39,-5.67 1.74,-1.55 2.94,-1.8 6.63,-2.64 1.14,-0.3 2.48,-0.59 3.89,-0.91 0.84,-0.18 3.92,-0.89 3.92,-4.47 0,-2.4 -2.03,-7.62 -8.52,-7.62 -1.18,0 -4.48,0.14 -6.76,1.48 -2.85,1.75 -2.85,4.14 -2.85,5.14 0,0.39 0,1.1 0.25,2.04 0,0.15 0.05,0.4 0.05,0.5 0,0.7 -0.7,0.7 -1.14,0.7 -1,0 -1.05,-0.2 -1.3,-1.14 l -2.54,-10.38 c 0,-0.54 0.45,-0.68 0.84,-0.68 0.45,0 0.45,0.04 1,0.5 0.16,0.09 2.05,1.73 2.84,2.39 2.79,-2.5 7.02,-2.89 9.41,-2.89 9.77,0 14.11,8.12 14.11,13.2 0,2.69 -1.09,4.67 -2.25,5.83 -1.78,1.79 -2.98,2.04 -7.17,2.98 l -3.89,0.91 c -2.19,0.48 -3.53,2.03 -3.53,3.98 0,2.39 2.18,6.81 8.22,6.81 4.14,0 7.92,-1.73 7.92,-7.36 0,-0.9 -0.14,-1.79 -0.14,-1.95 0,-0.75 0.68,-0.75 1.18,-0.75 0.96,0 1,0.11 1.25,1.11 z"
           inkscape:connector-curvature="0"
           style="fill:#000000;stroke-width:0" /></g>    </g>
    <path
       style="fill:none;stroke:#000000;stroke-width:1.77165353;stroke-linejoin:bevel;stroke-miterlimit:4;stroke-opacity:1;stroke-dasharray:none;stroke-dashoffset:0;marker-end:url(#Arrow1Lend)"
       d="m 509.69462,116.65845 95.61879,127.76586"
       id="path11460"
       inkscape:connector-curvature="0" />
    <path
       inkscape:connector-curvature="0"
       inkscape:original-d="m 593.78652,257.61515 9.42242,12.82888 13.26624,-9.74365"
       inkscape:path-effect="#path-effect8641"
       id="path8639"
       d="m 593.78652,257.61515 9.42242,12.82888 13.26624,-9.74365"
       style="fill:none;stroke:#000000;stroke-width:0.99874997;stroke-miterlimit:4;stroke-opacity:1;stroke-dasharray:none" />
    <path
       style="color:#000000;fill:none;stroke:#000000;stroke-width:1.37374997;stroke-miterlimit:4;stroke-opacity:1;stroke-dasharray:none;marker:none;marker-end:url(#Arrow1Mend);visibility:visible;display:inline;overflow:visible;enable-background:accumulate"
       d="M 691.83172,288.72465 643.30024,225.73699"
       id="path3453"
       inkscape:path-effect="#path-effect3455"
       inkscape:original-d="M 691.83172,288.72465 643.30024,225.73699"
       inkscape:connector-curvature="0" />
    <path
       inkscape:connector-curvature="0"
       inkscape:original-d="m 726.96088,330.83215 48.53148,62.98766"
       inkscape:path-effect="#path-effect5305"
       id="path5303"
       d="m 726.96088,330.83215 48.53148,62.98766"
       style="color:#000000;fill:none;stroke:#000000;stroke-width:1.37374997;stroke-miterlimit:4;stroke-opacity:1;stroke-dasharray:none;marker:none;marker-end:url(#Arrow1Mend);visibility:visible;display:inline;overflow:visible;enable-background:accumulate" />
    <g
       id="g5516"
       transform="matrix(0.60955517,0,0,0.60955517,495.67828,100.3298)">
      <g
         word-spacing="normal"
         letter-spacing="normal"
         font-size-adjust="none"
         font-stretch="normal"
         font-weight="normal"
         font-variant="normal"
         font-style="normal"
         stroke-miterlimit="10.433"
         xml:space="preserve"
         transform="matrix(1.0629921,0,0,-1.0629921,-186.02362,789.27165)"
         id="g5518"
         style="font-style:normal;font-variant:normal;font-weight:normal;font-stretch:normal;letter-spacing:normal;word-spacing:normal;text-anchor:start;fill:none;stroke:#000000;stroke-width:1.6405406;stroke-linecap:butt;stroke-linejoin:miter;stroke-miterlimit:10.43299961;stroke-opacity:1;stroke-dasharray:none;stroke-dashoffset:0"><path
           id="path5520"
           d="m 463.64,409.54 -0.01,-0.07 -0.02,-0.07 -0.02,-0.06 -0.02,-0.06 -0.01,-0.06 -0.02,-0.05 -0.02,-0.05 -0.01,-0.05 -0.02,-0.04 -0.02,-0.04 -0.02,-0.04 -0.02,-0.03 -0.02,-0.04 -0.03,-0.03 -0.02,-0.02 -0.03,-0.03 -0.03,-0.02 -0.03,-0.02 -0.03,-0.02 -0.04,-0.02 -0.04,-0.01 -0.04,-0.02 -0.05,-0.01 -0.05,-0.01 -0.05,-0.01 -0.06,-0.02 -0.06,-0.01 -0.06,0 -0.07,-0.01 -0.03,-0.01 -0.04,0 -0.04,-0.01 -0.04,0 -0.04,-0.01 -0.04,0 c -0.85,-0.05 -1.85,-0.05 -2.64,-0.05 -1.28,0 -1.39,0 -1.6,-0.11 -0.59,-0.34 -0.59,-1.14 -0.59,-1.34 0,-0.89 0.91,-0.89 1.7,-0.89 h 21.11 c 10.42,0 15.11,6.58 15.11,11.01 0,4.29 -3.75,6.43 -8.33,6.83 7.97,1.44 10.82,6.08 10.82,9.41 0,4.09 -3.6,6.92 -10.61,6.92 l -1.14,-2.34 c 0.98,0 5.03,0 5.03,-4.33 0,-3.49 -2.8,-8.81 -9.58,-8.81 h -7.86 l -0.45,-1.8 h 9.72 c 1.29,0 5.46,0 5.46,-5.08 0,-3.84 -2.53,-9.47 -9.6,-9.47 h -7.97 c -0.75,0 -0.85,0 -1.21,0.05 l 3.6,14.5 0.45,1.8 3.08,12.25 c 0.2,0.75 0.25,0.79 0.55,0.84 0.45,0.05 0.79,0.05 1.34,0.05 h 7.44 l 1.14,2.34 h -19.99 c -1,0 -1.84,0 -1.84,-1.44 0,-0.9 0.66,-0.9 2.09,-0.9 1.05,0 2,-0.05 3.05,-0.1 z"
           inkscape:connector-curvature="0"
           style="fill:#000000;stroke-width:0" /><path
           id="path5522"
           d="m 512.62,420.4 0,0.06 0,0.05 0,0.06 0,0.05 0,0.05 0,0.04 -0.01,0.05 0,0.04 0,0.05 -0.01,0.04 0,0.04 -0.01,0.04 0,0.03 -0.01,0.04 -0.02,0.07 -0.02,0.06 -0.02,0.05 -0.02,0.06 -0.03,0.04 -0.03,0.05 -0.04,0.03 -0.04,0.04 -0.04,0.03 -0.05,0.03 -0.05,0.02 -0.06,0.02 -0.06,0.02 -0.07,0.01 -0.07,0.01 -0.08,0.01 -0.08,0.01 -0.09,0.01 -0.09,0 -0.1,0.01 -0.05,0 -0.06,0 -0.05,0 -0.06,0 -0.06,0 -0.06,0 -0.06,0 -0.07,0 -0.06,0 -0.07,0 c -2.17,-1.75 -5.03,-2.23 -7.81,-2.23 h -0.84 v -1.96 h 0.84 c 1.39,0 3.51,0.25 4.98,0.74 v -17.46 h -5.5 v -1.95 c 1.71,0.14 5.88,0.14 7.77,0.14 1.25,0 2.5,-0.03 3.76,-0.03 1.05,0 2.86,-0.05 3.86,-0.11 v 1.95 h -5.36 z"
           inkscape:connector-curvature="0"
           style="fill:#000000;stroke-width:0" /><path
           id="path5524"
           d="m 541.42,406.7 h -2.2 c -0.07,-0.41 -0.38,-2.89 -1,-3.03 -0.74,-0.13 -2.83,-0.13 -3.63,-0.13 h -4.78 c 1.92,1.42 3.87,2.85 5.89,4.14 2.83,1.82 5.72,3.66 5.72,7.14 0,4.19 -3.94,6.8 -9.49,6.8 -4.73,0 -8.28,-1.84 -8.28,-5.16 0,-2.01 1.63,-2.75 2.67,-2.75 1.27,0 2.72,0.86 2.72,2.72 0,1.68 -1.28,2.36 -1.39,2.41 1.25,0.8 2.86,0.83 3.28,0.83 2.96,0 5.3,-1.88 5.3,-4.88 0,-2.68 -1.81,-4.92 -3.84,-6.68 l -8.29,-7.36 c -0.42,-0.43 -0.45,-0.46 -0.45,-1.14 v -0.85 h 16.58 z"
           inkscape:connector-curvature="0"
           style="fill:#000000;stroke-width:0" /><path
           id="path5526"
           d="m 566.96,418.65 0,0.14 -0.01,0.13 -0.02,0.13 -0.02,0.13 -0.03,0.13 -0.04,0.13 -0.04,0.12 -0.05,0.12 -0.05,0.11 -0.06,0.12 -0.06,0.11 -0.07,0.11 -0.08,0.1 -0.07,0.1 -0.09,0.1 -0.08,0.09 -0.1,0.08 -0.09,0.09 -0.1,0.08 -0.11,0.07 -0.1,0.07 -0.11,0.06 -0.12,0.06 -0.11,0.05 -0.12,0.05 -0.13,0.04 -0.12,0.04 -0.13,0.03 -0.13,0.02 -0.13,0.02 -0.13,0.01 -0.14,0 c -1.44,0 -2.64,-1.18 -2.64,-2.64 0,-1.44 1.2,-2.64 2.64,-2.64 1.45,0 2.64,1.2 2.64,2.64 z"
           inkscape:connector-curvature="0"
           style="fill:#000000;stroke-width:0" /><polygon
           id="polygon5528"
           points="605.66,452.78 597.84,446.5 599.23,444.56 605.66,448.68 612.08,444.61 613.48,446.45 "
           style="fill:#000000;stroke-width:0" /><path
           id="path5530"
           d="m 617.73,439.48 0.01,0.01 0,0.01 0,0.01 0,0.01 0.01,0.02 0.01,0.02 0,0.03 0.01,0.03 0.01,0.03 0.01,0.04 0,0.03 0.01,0.04 0.01,0.04 0.01,0.04 0.02,0.08 0.01,0.08 0.02,0.08 0.01,0.04 0.01,0.04 0,0.03 0.01,0.04 0.01,0.04 0,0.03 0.01,0.03 0,0.03 0.01,0.03 0,0.02 0,0.01 0,0.01 0.01,0.01 0,0.01 0,0.01 0,0.01 0,0 0,0.01 c 0,0.64 -0.55,0.75 -0.91,0.75 -0.34,0 -0.44,0 -1.09,-0.61 l -2.74,-2.28 c -1.95,1.98 -4.59,2.89 -7.92,2.89 -9.22,0 -13.75,-7.12 -13.75,-12.22 0,-2.64 1.19,-4.53 2.39,-5.67 1.74,-1.55 2.94,-1.8 6.63,-2.64 1.14,-0.3 2.48,-0.59 3.89,-0.91 0.84,-0.18 3.92,-0.89 3.92,-4.47 0,-2.4 -2.03,-7.62 -8.52,-7.62 -1.18,0 -4.48,0.14 -6.76,1.48 -2.85,1.75 -2.85,4.14 -2.85,5.14 0,0.39 0,1.1 0.25,2.04 0,0.15 0.05,0.4 0.05,0.5 0,0.7 -0.7,0.7 -1.14,0.7 -1,0 -1.05,-0.2 -1.3,-1.14 l -2.54,-10.38 c 0,-0.54 0.45,-0.68 0.84,-0.68 0.45,0 0.45,0.04 1,0.5 0.16,0.09 2.05,1.73 2.84,2.39 2.79,-2.5 7.02,-2.89 9.41,-2.89 9.77,0 14.11,8.12 14.11,13.2 0,2.69 -1.09,4.67 -2.25,5.83 -1.78,1.79 -2.98,2.04 -7.17,2.98 l -3.89,0.91 c -2.19,0.48 -3.53,2.03 -3.53,3.98 0,2.39 2.18,6.81 8.21,6.81 4.15,0 7.93,-1.73 7.93,-7.36 0,-0.9 -0.14,-1.79 -0.14,-1.95 0,-0.75 0.68,-0.75 1.18,-0.75 0.96,0 1,0.11 1.25,1.11 z"
           inkscape:connector-curvature="0"
           style="fill:#000000;stroke-width:0" /></g>    </g>
    <path
       style="color:#000000;fill:none;fill-rule:evenodd;stroke:#000000;stroke-width:1;marker:none;visibility:visible;display:inline;overflow:visible;enable-background:accumulate;stroke-opacity:1;stroke-miterlimit:4;stroke-dasharray:none;stroke-dashoffset:0"
       d="m 612.83899,242.25834 45.95002,-35.10788"
       id="path5606"
       inkscape:path-effect="#path-effect5608"
       inkscape:original-d="m 612.83899,242.25834 45.95002,-35.10788"
       inkscape:connector-curvature="0" />
    <path
       inkscape:connector-curvature="0"
       inkscape:original-d="M 746.5587,421.41178 792.50872,386.3039"
       inkscape:path-effect="#path-effect5612"
       id="path5610"
       d="M 746.5587,421.41178 792.50872,386.3039"
       style="color:#000000;fill:none;stroke:#000000;stroke-width:1;stroke-miterlimit:4;stroke-opacity:1;stroke-dasharray:none;stroke-dashoffset:0;marker:none;visibility:visible;display:inline;overflow:visible;enable-background:accumulate" />
    <path
       inkscape:connector-curvature="0"
       inkscape:original-d="m 359.33946,483.88315 0,-54.2107"
       inkscape:path-effect="#path-effect5616"
       id="path5614"
       d="m 359.33946,483.88315 0,-54.2107"
       style="color:#000000;fill:none;stroke:#000000;stroke-width:1;stroke-miterlimit:4;stroke-opacity:1;stroke-dasharray:none;stroke-dashoffset:0;marker:none;visibility:visible;display:inline;overflow:visible;enable-background:accumulate"
       sodipodi:nodetypes="cc" />
    <path
       sodipodi:nodetypes="cc"
       style="color:#000000;fill:none;stroke:#000000;stroke-width:1;stroke-miterlimit:4;stroke-opacity:1;stroke-dasharray:none;stroke-dashoffset:0;marker:none;visibility:visible;display:inline;overflow:visible;enable-background:accumulate"
       d="m 740.3632,483.36686 0,-54.2107"
       id="path5618"
       inkscape:path-effect="#path-effect5620"
       inkscape:original-d="m 740.3632,483.36686 0,-54.2107"
       inkscape:connector-curvature="0" />
  </g>
</svg>
