<?xml version="1.0" encoding="UTF-8" standalone="no"?>
<!-- Created with Inkscape (http://www.inkscape.org/) -->

<svg
   xmlns:dc="http://purl.org/dc/elements/1.1/"
   xmlns:cc="http://creativecommons.org/ns#"
   xmlns:rdf="http://www.w3.org/1999/02/22-rdf-syntax-ns#"
   xmlns:svg="http://www.w3.org/2000/svg"
   xmlns="http://www.w3.org/2000/svg"
   xmlns:sodipodi="http://sodipodi.sourceforge.net/DTD/sodipodi-0.dtd"
   xmlns:inkscape="http://www.inkscape.org/namespaces/inkscape"
   width="700.35999"
   height="500"
   id="svg2"
   sodipodi:version="0.32"
   inkscape:version="0.48.2 r9819"
   version="1.0"
   sodipodi:docname="beampath.svg"
   inkscape:output_extension="org.inkscape.output.svg.inkscape"
   inkscape:export-filename="/home/guest1/public_html/MROI_diagram.png"
   inkscape:export-xdpi="270.31503"
   inkscape:export-ydpi="270.31503">
  <sodipodi:namedview
     id="base"
     pagecolor="#ffffff"
     bordercolor="#666666"
     borderopacity="1.0"
     gridtolerance="10000"
     guidetolerance="10"
     objecttolerance="10"
     inkscape:pageopacity="0.0"
     inkscape:pageshadow="2"
     inkscape:zoom="1.519697"
     inkscape:cx="353.07222"
     inkscape:cy="230.56993"
     inkscape:document-units="px"
     inkscape:current-layer="layer1"
     showgrid="false"
     inkscape:window-width="1600"
     inkscape:window-height="856"
     inkscape:window-x="160"
     inkscape:window-y="95"
     inkscape:window-maximized="0" />
  <defs
     id="defs4">
    <marker
       style="overflow:visible;"
       id="Arrow1Mend"
       refX="0.0"
       refY="0.0"
       orient="auto"
       inkscape:stockid="Arrow1Mend">
      <path
         transform="scale(0.4) rotate(180) translate(10,0)"
         style="fill-rule:evenodd;stroke:#000000;stroke-width:1.0pt;marker-start:none;"
         d="M 0.0,0.0 L 5.0,-5.0 L -12.5,0.0 L 5.0,5.0 L 0.0,0.0 z "
         id="path4116" />
    </marker>
    <marker
       style="overflow:visible;"
       id="Arrow2Mend"
       refX="0.0"
       refY="0.0"
       orient="auto"
       inkscape:stockid="Arrow2Mend">
      <path
         transform="scale(0.6) rotate(180) translate(0,0)"
         d="M 8.7185878,4.0337352 L -2.2072895,0.016013256 L 8.7185884,-4.0017078 C 6.9730900,-1.6296469 6.9831476,1.6157441 8.7185878,4.0337352 z "
         style="font-size:12.0;fill-rule:evenodd;stroke-width:0.62500000;stroke-linejoin:round;"
         id="path3942" />
    </marker>
    <marker
       style="overflow:visible"
       id="Arrow1Mstart"
       refX="0"
       refY="0"
       orient="auto"
       inkscape:stockid="Arrow1Mstart">
      <path
         transform="matrix(0.4,0,0,0.4,4,0)"
         style="fill-rule:evenodd;stroke:#000000;stroke-width:1pt;marker-start:none"
         d="M 0,0 L 5,-5 L -12.5,0 L 5,5 L 0,0 z"
         id="path3490" />
    </marker>
    <inkscape:perspective
       id="perspective10"
       inkscape:persp3d-origin="372.04724 : 350.78739 : 1"
       inkscape:vp_z="744.09448 : 526.18109 : 1"
       inkscape:vp_y="0 : 1000 : 0"
       inkscape:vp_x="0 : 526.18109 : 1"
       sodipodi:type="inkscape:persp3d" />
    <marker
       style="overflow:visible"
       id="Arrow2Mend-9"
       refX="0"
       refY="0"
       orient="auto"
       inkscape:stockid="Arrow2Mend">
      <path
         transform="scale(-0.6,-0.6)"
         d="M 8.7185878,4.0337352 -2.2072895,0.01601326 8.7185884,-4.0017078 c -1.7454984,2.3720609 -1.7354408,5.6174519 -6e-7,8.035443 z"
         style="font-size:12px;fill-rule:evenodd;stroke-width:0.625;stroke-linejoin:round"
         id="path3942-3"
         inkscape:connector-curvature="0" />
    </marker>
    <marker
       style="overflow:visible"
       id="Arrow2Mend-95"
       refX="0"
       refY="0"
       orient="auto"
       inkscape:stockid="Arrow2Mend">
      <path
         transform="scale(-0.6,-0.6)"
         d="M 8.7185878,4.0337352 -2.2072895,0.01601326 8.7185884,-4.0017078 c -1.7454984,2.3720609 -1.7354408,5.6174519 -6e-7,8.035443 z"
         style="font-size:12px;fill-rule:evenodd;stroke-width:0.625;stroke-linejoin:round"
         id="path3942-1"
         inkscape:connector-curvature="0" />
    </marker>
    <marker
       style="overflow:visible"
       id="Arrow2Mend-4"
       refX="0"
       refY="0"
       orient="auto"
       inkscape:stockid="Arrow2Mend">
      <path
         transform="scale(-0.6,-0.6)"
         d="M 8.7185878,4.0337352 -2.2072895,0.01601326 8.7185884,-4.0017078 c -1.7454984,2.3720609 -1.7354408,5.6174519 -6e-7,8.035443 z"
         style="font-size:12px;fill-rule:evenodd;stroke-width:0.625;stroke-linejoin:round"
         id="path3942-5"
         inkscape:connector-curvature="0" />
    </marker>
  </defs>
  <metadata
     id="metadata7">
    <rdf:RDF>
      <cc:Work
         rdf:about="">
        <dc:format>image/svg+xml</dc:format>
        <dc:type
           rdf:resource="http://purl.org/dc/dcmitype/StillImage" />
        <dc:title></dc:title>
      </cc:Work>
    </rdf:RDF>
  </metadata>
  <g
     id="layer1"
     inkscape:groupmode="layer"
     inkscape:label="Layer 1">
    <path
       inkscape:connector-curvature="0"
       d="m 30.458968,248.73674 c 0,19.17988 29.757804,34.74618 66.423654,34.74618 36.665858,0 66.423658,-15.5663 66.423658,-34.74618 l -0.17273,-12.71343 m 0.002,0.15842 c 0,19.06461 -29.57891,34.53732 -66.024378,34.53732 -36.445451,0 -66.024382,-15.47271 -66.024382,-34.53732 0,-19.06459 29.578931,-34.53732 66.024382,-34.53732 36.445468,0 66.024378,15.47273 66.024378,34.53732 z M 30.459663,249.1722 31.088447,235.07279"
       style="fill:none;stroke:#000000;stroke-width:0.65971947;stroke-miterlimit:4;stroke-opacity:1;stroke-dasharray:none;stroke-dashoffset:0"
       id="path3155" />
    <path
       inkscape:connector-curvature="0"
       id="path3162"
       style="fill:#000000;fill-opacity:0;fill-rule:evenodd;stroke:#000000;stroke-width:0.65971947;stroke-miterlimit:4;stroke-opacity:1;stroke-dasharray:none;stroke-dashoffset:0"
       d="m 85.996452,91.005246 c 0,2.872309 4.45642,5.203461 9.94736,5.203461 5.490938,0 9.947368,-2.331152 9.947368,-5.203461 l -0.0259,-1.90392 m 2.5e-4,0.02373 c 0,2.855043 -4.42963,5.172181 -9.887558,5.172181 -5.45794,0 -9.88758,-2.317138 -9.88758,-5.172181 0,-2.855044 4.42964,-5.172182 9.88758,-5.172182 5.457928,0 9.887558,2.317138 9.887558,5.172182 z m -19.869048,1.945405 0.0942,-2.111479" />
    <path
       inkscape:connector-curvature="0"
       d="m 88.261322,179.31368 c -2.01534,2.03103 -0.49982,6.85509 3.38287,10.76799 3.88268,3.91291 8.669488,5.44022 10.684828,3.40919 l 1.31758,-1.36471 m -0.0165,0.017 c -2.00322,2.01883 -6.761268,0.50068 -10.620598,-3.3887 -3.85935,-3.88938 -5.36576,-8.68443 -3.36254,-10.70326 2.00324,-2.01882 6.76127,-0.50069 10.620618,3.38869 3.85933,3.88939 5.36575,8.68445 3.36252,10.70327 z m -15.414528,-12.78328 1.54809,-1.42593"
       style="fill:#000000;fill-opacity:0;fill-rule:evenodd;stroke:#000000;stroke-width:0.65971947;stroke-miterlimit:4;stroke-opacity:1;stroke-dasharray:none;stroke-dashoffset:0"
       id="path3164" />
    <path
       inkscape:connector-curvature="0"
       id="path3166"
       style="fill:#000000;fill-opacity:0;fill-rule:evenodd;stroke:#000000;stroke-width:0.65971947;stroke-miterlimit:4;stroke-opacity:1;stroke-dasharray:none;stroke-dashoffset:0"
       d="m 288.90659,194.01725 c 2.46829,-1.43616 2.24332,-6.49113 -0.50216,-11.28344 -2.74547,-4.7923 -6.97692,-7.51614 -9.44521,-6.07998 l -1.62316,0.97454 m 0.0203,-0.0121 c 2.45344,-1.42753 6.65946,1.27995 9.38843,6.04344 2.72898,4.7635 2.95258,9.7881 0.49913,11.21562 -2.45344,1.42752 -6.65947,-1.27994 -9.38843,-6.04344 -2.72897,-4.76349 -2.95258,-9.78809 -0.49913,-11.21562 z m 11.60628,16.36833 -1.86155,0.97355" />
    <path
       inkscape:connector-curvature="0"
       id="path3168"
       style="fill:#000000;fill-opacity:0;fill-rule:evenodd;stroke:#000000;stroke-width:0.65971947;stroke-miterlimit:4;stroke-opacity:1;stroke-dasharray:none;stroke-dashoffset:0"
       d="m 92.495552,380.08613 c -2.75301,0.74341 -3.83394,5.68483 -2.41278,11.02995 1.42117,5.34512 4.80891,9.07984 7.56191,8.33644 l 1.81815,-0.51796 m -0.0227,0.006 c -2.73647,0.73895 -6.10384,-2.97334 -7.51645,-8.28633 -1.41263,-5.31299 -0.3382,-10.22471 2.39826,-10.96364 2.73646,-0.73894 6.103838,2.97333 7.516448,8.28632 1.41262,5.31299 0.3382,10.22471 -2.398258,10.96365 z m -7.0071,-18.83788 2.04814,-0.45483" />
    <path
       inkscape:connector-curvature="0"
       id="path3170"
       style="fill:none;stroke:#000000;stroke-width:0.65971947;stroke-miterlimit:4;stroke-opacity:1;stroke-dasharray:none;stroke-dashoffset:0"
       d="m 584.16513,368.46563 c 10.38928,0 18.82116,16.37096 18.82116,36.5423 0,20.17137 -8.43188,36.54232 -18.82116,36.54232 l -6.88657,-0.095 m 0.0858,9.1e-4 c 10.32684,0 18.70804,-16.27255 18.70804,-36.32266 0,-20.0501 -8.3812,-36.32264 -18.70804,-36.32264 -10.32683,0 -18.70803,16.27254 -18.70803,36.32264 0,20.05011 8.3812,36.32266 18.70803,36.32266 z m 7.03663,-72.99032 -7.6373,0.34592" />
    <path
       inkscape:connector-curvature="0"
       d="m 497.15611,418.28324 c 2.85012,0 5.16328,-4.49111 5.16328,-10.02478 0,-5.53368 -2.31316,-10.02478 -5.16328,-10.02478 l -1.88923,0.0261 m 0.0236,-2.5e-4 c 2.833,0 5.13225,4.46411 5.13225,9.96452 0,5.50042 -2.29925,9.96452 -5.13225,9.96452 -2.83299,0 -5.13223,-4.4641 -5.13223,-9.96452 0,-5.50041 2.29924,-9.96452 5.13223,-9.96452 z m 1.93038,20.02369 -2.09517,-0.0949"
       style="fill:#000000;fill-opacity:0;fill-rule:evenodd;stroke:#000000;stroke-width:0.65971947;stroke-miterlimit:4;stroke-opacity:1;stroke-dasharray:none;stroke-dashoffset:0"
       id="path3192" />
    <path
       inkscape:connector-curvature="0"
       id="path3196"
       style="fill:#000000;fill-opacity:0;fill-rule:evenodd;stroke:#000000;stroke-width:0.65971947;stroke-miterlimit:4;stroke-opacity:1;stroke-dasharray:none;stroke-dashoffset:0"
       d="m 250.33854,418.49137 c -2.75301,-0.74341 -6.14075,2.99132 -7.56192,8.33643 -1.42115,5.34513 -0.34022,10.28655 2.41278,11.02995 l 1.83155,0.46758 m -0.0228,-0.006 c -2.73646,-0.73894 -3.81089,-5.65066 -2.39827,-10.96364 1.41262,-5.31301 4.77999,-9.02527 7.51645,-8.28633 2.73646,0.73893 3.81089,5.65064 2.39827,10.96364 -1.41261,5.31299 -4.78,9.02527 -7.51645,8.28633 z m 3.27788,-19.84491 1.9994,0.63817" />
    <path
       inkscape:connector-curvature="0"
       d="m 337.37654,454.42948 c -1.74296,-0.048 -3.23203,2.65947 -3.32386,6.0435 -0.0918,3.38405 1.24826,6.16949 2.99122,6.21751 l 1.15576,0.0159 m -0.0144,-2.4e-4 c -1.73247,-0.0478 -3.06449,-2.81645 -2.97322,-6.18014 0.0913,-3.3637 1.57139,-6.05492 3.30386,-6.00718 1.73248,0.0477 3.06449,2.81643 2.97322,6.18013 -0.0913,3.3637 -1.57138,6.05493 -3.30386,6.00719 z m -0.84829,-12.27773 1.2797,0.0933"
       style="fill:#000000;fill-opacity:0;fill-rule:evenodd;stroke:#000000;stroke-width:0.65971947;stroke-miterlimit:4;stroke-opacity:1;stroke-dasharray:none;stroke-dashoffset:0"
       id="path3198" />
    <path
       inkscape:connector-curvature="0"
       d="m 56.216948,451.93342 c -2.770466,0.67435 -3.972687,5.58723 -2.683543,10.96624 1.289159,5.37899 4.583932,9.19727 7.354391,8.52292 l 1.830334,-0.47236 m -0.02282,0.006 c -2.753805,0.6703 -6.028772,-3.12503 -7.310176,-8.47169 -1.28141,-5.34668 -0.08641,-10.23 2.667403,-10.90032 2.7538,-0.6703 6.028764,3.12501 7.310172,8.47169 1.2814,5.34666 0.0864,10.23002 -2.667399,10.90032 z m -6.541251,-19.00727 2.058714,-0.40347"
       style="fill:#000000;fill-opacity:0;fill-rule:evenodd;stroke:#000000;stroke-width:0.65971947;stroke-miterlimit:4;stroke-opacity:1;stroke-dasharray:none;stroke-dashoffset:0"
       id="path3200" />
    <path
       inkscape:connector-curvature="0"
       id="path3202"
       style="fill:#000000;fill-opacity:0;fill-rule:evenodd;stroke:#000000;stroke-width:0.65971947;stroke-miterlimit:4;stroke-opacity:1;stroke-dasharray:none;stroke-dashoffset:0"
       d="m 477.33936,300.43537 c -0.74415,1.47189 0.93554,3.83908 3.74933,5.2839 2.81378,1.44483 5.7014,1.42286 6.44555,-0.049 l 0.48002,-0.98245 m -0.006,0.0122 c -0.73969,1.46305 -3.60994,1.48487 -6.40681,0.0487 -2.79687,-1.43613 -4.46646,-3.7891 -3.72678,-5.25214 0.73969,-1.46304 3.60993,-1.48487 6.40681,-0.0487 2.79686,1.43614 4.46647,3.7891 3.72678,5.25215 z m -10.68573,-4.23122 0.59529,-1.05723" />
    <path
       inkscape:connector-curvature="0"
       d="m 471.75917,339.89196 c 0.5485,1.5567 3.40892,1.95581 6.38484,0.89087 2.97592,-1.06494 4.94601,-3.19265 4.3975,-4.74936 l -0.37759,-1.02686 m 0.005,0.0128 c 0.54521,1.54736 -1.41304,3.66229 -4.37107,4.72082 -2.95804,1.05855 -5.80126,0.66182 -6.34646,-0.88552 -0.54521,-1.54735 1.41304,-3.66226 4.37107,-4.7208 2.95805,-1.05856 5.80126,-0.66184 6.34646,0.8855 z m -10.39693,4.90788 -0.35218,-1.16263"
       style="fill:#000000;fill-opacity:0;fill-rule:evenodd;stroke:#000000;stroke-width:0.65971947;stroke-miterlimit:4;stroke-opacity:1;stroke-dasharray:none;stroke-dashoffset:0"
       id="path3212" />
    <path
       inkscape:connector-curvature="0"
       id="path3237"
       d="m 42.072772,59.648453 0,184.645517 47.79641,-148.853724 0,85.298214 191.185668,0 -185.211108,202.37415 480.333888,0 -73.75528,24.99997 73.69661,25.07209"
       style="fill:none;stroke:#3c3c3c;stroke-width:0.65971947;stroke-linecap:butt;stroke-linejoin:miter;stroke-miterlimit:4;stroke-opacity:1;stroke-dasharray:5.27775562, 1.31943891, 0.65971945, 1.31943891;stroke-dashoffset:0" />
    <path
       inkscape:connector-curvature="0"
       style="fill:none;stroke:#3c3c3c;stroke-width:0.65971947;stroke-linecap:butt;stroke-linejoin:miter;stroke-miterlimit:4;stroke-opacity:1;stroke-dasharray:5.27775562, 1.31943891, 0.65971945, 1.31943891;stroke-dashoffset:0"
       d="m 153.79119,59.648453 0,184.645517 -51.1431,-149.188228 0,94.664288 183.05363,0 -187.202628,205.38468 478.617348,0 -74.87011,13.07613 73.2272,14.96049"
       id="path3239" />
    <path
       inkscape:connector-curvature="0"
       id="path3241"
       d="m 575.7994,423.25294 -324.61731,0 82.64797,37.12981"
       style="fill:none;stroke:#3c3c3c;stroke-width:0.65971947;stroke-linecap:butt;stroke-linejoin:miter;stroke-miterlimit:4;stroke-opacity:1;stroke-dasharray:5.27775562, 1.31943891, 0.65971945, 1.31943891;stroke-dashoffset:0" />
    <path
       inkscape:connector-curvature="0"
       id="path3243"
       d="m 576.46323,433.28802 -328.60035,0 85.80121,27.09473"
       style="fill:none;stroke:#3c3c3c;stroke-width:0.65971947;stroke-linecap:butt;stroke-linejoin:miter;stroke-miterlimit:4;stroke-opacity:1;stroke-dasharray:5.27775562, 1.31943891, 0.65971945, 1.31943891;stroke-dashoffset:0" />
    <path
       inkscape:connector-curvature="0"
       id="path3247"
       d="m 333.96459,460.50379 -273.304324,0 581.820844,-215.24153"
       style="fill:none;stroke:#3c3c3c;stroke-width:0.65971947;stroke-linecap:butt;stroke-linejoin:miter;stroke-miterlimit:4;stroke-opacity:1;stroke-dasharray:5.27775562, 1.31943891, 0.65971945, 1.31943891;stroke-dashoffset:0" />
    <path
       inkscape:connector-curvature="0"
       d="m 477.33936,300.43537 c -0.74415,1.47189 0.93554,3.83908 3.74933,5.2839 2.81378,1.44483 5.7014,1.42286 6.44555,-0.049 l 0.48002,-0.98245 m -0.006,0.0122 c -0.73969,1.46305 -3.60994,1.48487 -6.40681,0.0487 -2.79687,-1.43613 -4.46646,-3.7891 -3.72678,-5.25214 0.73969,-1.46304 3.60993,-1.48487 6.40681,-0.0487 2.79686,1.43614 4.46647,3.7891 3.72678,5.25215 z m -10.68573,-4.23122 0.59529,-1.05723"
       style="fill:#000000;fill-opacity:0;fill-rule:evenodd;stroke:#000000;stroke-width:0.65971947;stroke-miterlimit:4;stroke-opacity:1;stroke-dasharray:none;stroke-dashoffset:0"
       id="path3257" />
    <path
       inkscape:connector-curvature="0"
       id="path3259"
       style="fill:#000000;fill-opacity:0;fill-rule:evenodd;stroke:#000000;stroke-width:0.65971947;stroke-miterlimit:4;stroke-opacity:1;stroke-dasharray:none;stroke-dashoffset:0"
       d="m 471.75917,339.89196 c 0.5485,1.5567 3.40892,1.95581 6.38484,0.89087 2.97592,-1.06494 4.94601,-3.19265 4.3975,-4.74936 l -0.37759,-1.02686 m 0.005,0.0128 c 0.54521,1.54736 -1.41304,3.66229 -4.37107,4.72082 -2.95804,1.05855 -5.80126,0.66182 -6.34646,-0.88552 -0.54521,-1.54735 1.41304,-3.66226 4.37107,-4.7208 2.95805,-1.05856 5.80126,-0.66184 6.34646,0.8855 z m -10.39693,4.90788 -0.35218,-1.16263" />
    <path
       inkscape:connector-curvature="0"
       style="fill:none;stroke:#3c3c3c;stroke-width:0.65971947;stroke-linecap:butt;stroke-linejoin:miter;stroke-miterlimit:4;stroke-opacity:1;stroke-dasharray:5.27775562, 1.31943891, 0.65971945, 1.31943891;stroke-dashoffset:0"
       d="m 480.37253,305.29891 -3.81708,31.81957 -19.74921,-51.68067"
       id="path3261" />
    <path
       inkscape:connector-curvature="0"
       d="m 529.91274,280.56692 c -0.74415,1.47189 0.93554,3.83908 3.74931,5.28391 2.8138,1.44482 5.7014,1.42285 6.44557,-0.049 l 0.48001,-0.98245 m -0.006,0.0122 c -0.73969,1.46305 -3.60995,1.48487 -6.40681,0.0487 -2.79688,-1.43613 -4.46647,-3.7891 -3.72679,-5.25214 0.73969,-1.46304 3.60994,-1.48487 6.40681,-0.0487 2.79687,1.43614 4.46647,3.7891 3.72679,5.25215 z m -10.68575,-4.23122 0.59531,-1.05723"
       style="fill:#000000;fill-opacity:0;fill-rule:evenodd;stroke:#000000;stroke-width:0.65971947;stroke-miterlimit:4;stroke-opacity:1;stroke-dasharray:none;stroke-dashoffset:0"
       id="path3299" />
    <path
       inkscape:connector-curvature="0"
       id="path3301"
       style="fill:#000000;fill-opacity:0;fill-rule:evenodd;stroke:#000000;stroke-width:0.65971947;stroke-miterlimit:4;stroke-opacity:1;stroke-dasharray:none;stroke-dashoffset:0"
       d="m 524.33255,320.02351 c 0.5485,1.5567 3.4089,1.95581 6.38483,0.89087 2.97592,-1.06494 4.94601,-3.19265 4.3975,-4.74936 l -0.37759,-1.02686 m 0.005,0.0128 c 0.54521,1.54736 -1.41303,3.66229 -4.37107,4.72082 -2.95804,1.05855 -5.80125,0.66183 -6.34645,-0.88552 -0.54521,-1.54735 1.41304,-3.66226 4.37107,-4.7208 2.95803,-1.05856 5.80125,-0.66184 6.34645,0.8855 z m -10.39692,4.90788 -0.35218,-1.16263" />
    <path
       inkscape:connector-curvature="0"
       id="path3305"
       style="fill:#000000;fill-opacity:0;fill-rule:evenodd;stroke:#000000;stroke-width:0.65971947;stroke-miterlimit:4;stroke-opacity:1;stroke-dasharray:none;stroke-dashoffset:0"
       d="m 529.91274,280.56692 c -0.74415,1.47189 0.93554,3.83908 3.74931,5.28391 2.8138,1.44482 5.7014,1.42285 6.44557,-0.049 l 0.48001,-0.98245 m -0.006,0.0122 c -0.73969,1.46305 -3.60995,1.48487 -6.40681,0.0487 -2.79688,-1.43613 -4.46647,-3.7891 -3.72679,-5.25214 0.73969,-1.46304 3.60994,-1.48487 6.40681,-0.0487 2.79687,1.43614 4.46647,3.7891 3.72679,5.25215 z m -10.68575,-4.23122 0.59531,-1.05723" />
    <path
       inkscape:connector-curvature="0"
       d="m 524.33255,320.02351 c 0.5485,1.5567 3.4089,1.95581 6.38483,0.89087 2.97592,-1.06494 4.94601,-3.19265 4.3975,-4.74936 l -0.37759,-1.02686 m 0.005,0.0128 c 0.54521,1.54736 -1.41303,3.66229 -4.37107,4.72082 -2.95804,1.05855 -5.80125,0.66183 -6.34645,-0.88552 -0.54521,-1.54735 1.41304,-3.66226 4.37107,-4.7208 2.95803,-1.05856 5.80125,-0.66184 6.34645,0.8855 z m -10.39692,4.90788 -0.35218,-1.16263"
       style="fill:#000000;fill-opacity:0;fill-rule:evenodd;stroke:#000000;stroke-width:0.65971947;stroke-miterlimit:4;stroke-opacity:1;stroke-dasharray:none;stroke-dashoffset:0"
       id="path3307" />
    <path
       inkscape:connector-curvature="0"
       id="path3309"
       d="m 532.9459,285.43046 -3.81707,31.81957 -19.74921,-51.68067"
       style="fill:none;stroke:#3c3c3c;stroke-width:0.65971947;stroke-linecap:butt;stroke-linejoin:miter;stroke-miterlimit:4;stroke-opacity:1;stroke-dasharray:5.27775562, 1.31943891, 0.65971945, 1.31943891;stroke-dashoffset:0" />
    <path
       inkscape:connector-curvature="0"
       id="path3311"
       style="fill:#000000;fill-opacity:0;fill-rule:evenodd;stroke:#000000;stroke-width:0.65971947;stroke-miterlimit:4;stroke-opacity:1;stroke-dasharray:none;stroke-dashoffset:0"
       d="m 585.11479,260.69847 c -0.74416,1.47189 0.93553,3.83908 3.74931,5.28391 2.81379,1.44482 5.7014,1.42286 6.44555,-0.049 l 0.48002,-0.98245 m -0.006,0.0122 c -0.73969,1.46305 -3.60995,1.48487 -6.40681,0.0487 -2.79689,-1.43613 -4.46648,-3.7891 -3.7268,-5.25214 0.73969,-1.46304 3.60994,-1.48487 6.40681,-0.0487 2.79688,1.43614 4.46648,3.7891 3.7268,5.25215 z m -10.68575,-4.23122 0.59531,-1.05723" />
    <path
       inkscape:connector-curvature="0"
       d="m 579.5346,300.15506 c 0.5485,1.5567 3.4089,1.95581 6.38482,0.89087 2.97592,-1.06494 4.94601,-3.19265 4.39751,-4.74936 l -0.3776,-1.02686 m 0.005,0.0128 c 0.54521,1.54736 -1.41305,3.66229 -4.37108,4.72082 -2.95804,1.05855 -5.80124,0.66183 -6.34645,-0.88552 -0.5452,-1.54735 1.41304,-3.66226 4.37108,-4.7208 2.95803,-1.05856 5.80125,-0.66184 6.34645,0.8855 z m -10.39694,4.90788 -0.35217,-1.16262"
       style="fill:#000000;fill-opacity:0;fill-rule:evenodd;stroke:#000000;stroke-width:0.65971947;stroke-miterlimit:4;stroke-opacity:1;stroke-dasharray:none;stroke-dashoffset:0"
       id="path3313" />
    <path
       inkscape:connector-curvature="0"
       d="m 585.11479,260.69847 c -0.74416,1.47189 0.93553,3.83908 3.74931,5.28391 2.81379,1.44482 5.7014,1.42286 6.44555,-0.049 l 0.48002,-0.98245 m -0.006,0.0122 c -0.73969,1.46305 -3.60995,1.48487 -6.40681,0.0487 -2.79689,-1.43613 -4.46648,-3.7891 -3.7268,-5.25214 0.73969,-1.46304 3.60994,-1.48487 6.40681,-0.0487 2.79688,1.43614 4.46648,3.7891 3.7268,5.25215 z m -10.68575,-4.23122 0.59531,-1.05723"
       style="fill:#000000;fill-opacity:0;fill-rule:evenodd;stroke:#000000;stroke-width:0.65971947;stroke-miterlimit:4;stroke-opacity:1;stroke-dasharray:none;stroke-dashoffset:0"
       id="path3317" />
    <path
       inkscape:connector-curvature="0"
       id="path3319"
       style="fill:#000000;fill-opacity:0;fill-rule:evenodd;stroke:#000000;stroke-width:0.65971947;stroke-miterlimit:4;stroke-opacity:1;stroke-dasharray:none;stroke-dashoffset:0"
       d="m 579.5346,300.15506 c 0.5485,1.5567 3.4089,1.95581 6.38482,0.89087 2.97592,-1.06494 4.94601,-3.19265 4.39751,-4.74936 l -0.3776,-1.02686 m 0.005,0.0128 c 0.54521,1.54736 -1.41305,3.66229 -4.37108,4.72082 -2.95804,1.05855 -5.80124,0.66183 -6.34645,-0.88552 -0.5452,-1.54735 1.41304,-3.66226 4.37108,-4.7208 2.95803,-1.05856 5.80125,-0.66184 6.34645,0.8855 z m -10.39694,4.90788 -0.35217,-1.16262" />
    <path
       inkscape:connector-curvature="0"
       style="fill:none;stroke:#3c3c3c;stroke-width:0.65971947;stroke-linecap:butt;stroke-linejoin:miter;stroke-miterlimit:4;stroke-opacity:1;stroke-dasharray:5.27775562, 1.31943891, 0.65971945, 1.31943891;stroke-dashoffset:0"
       d="m 588.14794,265.56201 -3.81707,31.81957 -19.7492,-51.68067"
       id="path3321" />
    <path
       inkscape:connector-curvature="0"
       d="m 639.35455,240.09678 c -0.74417,1.47188 0.93553,3.83908 3.74931,5.2839 2.81378,1.44483 5.7014,1.42286 6.44555,-0.049 l 0.48002,-0.98246 m -0.006,0.0122 c -0.73969,1.46305 -3.60994,1.48488 -6.40681,0.0487 -2.79687,-1.43614 -4.46647,-3.78911 -3.72678,-5.25216 0.73969,-1.46304 3.60993,-1.48486 6.4068,-0.0487 2.79687,1.43614 4.46648,3.78911 3.72679,5.25214 z m -10.68574,-4.23121 0.5953,-1.05723"
       style="fill:#000000;fill-opacity:0;fill-rule:evenodd;stroke:#000000;stroke-width:0.65971947;stroke-miterlimit:4;stroke-opacity:1;stroke-dasharray:none;stroke-dashoffset:0"
       id="path3323" />
    <path
       inkscape:connector-curvature="0"
       id="path3325"
       style="fill:#000000;fill-opacity:0;fill-rule:evenodd;stroke:#000000;stroke-width:0.65971947;stroke-miterlimit:4;stroke-opacity:1;stroke-dasharray:none;stroke-dashoffset:0"
       d="m 633.77435,279.55337 c 0.5485,1.5567 3.40891,1.95582 6.38483,0.89087 2.97592,-1.06494 4.94601,-3.19266 4.39751,-4.74937 l -0.3776,-1.02685 m 0.005,0.0128 c 0.54521,1.54735 -1.41305,3.66227 -4.37108,4.72082 -2.95804,1.05854 -5.80125,0.66182 -6.34646,-0.88552 -0.5452,-1.54736 1.41305,-3.66228 4.37108,-4.72082 2.95804,-1.05854 5.80126,-0.66183 6.34646,0.88552 z m -10.39693,4.90787 -0.35218,-1.16262" />
    <path
       inkscape:connector-curvature="0"
       id="path3329"
       style="fill:#000000;fill-opacity:0;fill-rule:evenodd;stroke:#000000;stroke-width:0.65971947;stroke-miterlimit:4;stroke-opacity:1;stroke-dasharray:none;stroke-dashoffset:0"
       d="m 639.35455,240.09678 c -0.74417,1.47188 0.93553,3.83908 3.74931,5.2839 2.81378,1.44483 5.7014,1.42286 6.44555,-0.049 l 0.48002,-0.98246 m -0.006,0.0122 c -0.73969,1.46305 -3.60994,1.48488 -6.40681,0.0487 -2.79687,-1.43614 -4.46647,-3.78911 -3.72678,-5.25216 0.73969,-1.46304 3.60993,-1.48486 6.4068,-0.0487 2.79687,1.43614 4.46648,3.78911 3.72679,5.25214 z m -10.68574,-4.23121 0.5953,-1.05723" />
    <path
       inkscape:connector-curvature="0"
       d="m 633.77435,279.55337 c 0.5485,1.5567 3.40891,1.95582 6.38483,0.89087 2.97592,-1.06494 4.94601,-3.19266 4.39751,-4.74937 l -0.3776,-1.02685 m 0.005,0.0128 c 0.54521,1.54735 -1.41305,3.66227 -4.37108,4.72082 -2.95804,1.05854 -5.80125,0.66182 -6.34646,-0.88552 -0.5452,-1.54736 1.41305,-3.66228 4.37108,-4.72082 2.95804,-1.05854 5.80126,-0.66183 6.34646,0.88552 z m -10.39693,4.90787 -0.35218,-1.16262"
       style="fill:#000000;fill-opacity:0;fill-rule:evenodd;stroke:#000000;stroke-width:0.65971947;stroke-miterlimit:4;stroke-opacity:1;stroke-dasharray:none;stroke-dashoffset:0"
       id="path3331" />
    <path
       inkscape:connector-curvature="0"
       sodipodi:nodetypes="ccc"
       id="path3333"
       d="m 642.38771,244.96032 -3.81708,31.81956 -19.3758,-50.88622"
       style="fill:none;stroke:#3c3c3c;stroke-width:0.65971947;stroke-linecap:butt;stroke-linejoin:miter;stroke-miterlimit:4;stroke-opacity:1;stroke-dasharray:5.27775562, 1.31943891, 0.65971945, 1.31943891;stroke-dashoffset:0" />
    <path
       inkscape:connector-curvature="0"
       id="path3335"
       d="m 96.210892,96.130617 0,89.289763 187.167388,0 -186.206858,203.37879 478.296058,0 -73.06379,19.44297 73.39571,20.78097 -325.85833,0 83.8475,31.36242"
       style="fill:none;stroke:#3c3c3c;stroke-width:0.65971947;stroke-linecap:butt;stroke-linejoin:miter;stroke-miterlimit:4;stroke-opacity:1;stroke-dasharray:5.27775562, 1.31943891, 0.65971945, 1.31943891;stroke-dashoffset:0" />
    <path
       inkscape:connector-curvature="0"
       sodipodi:nodetypes="cccccccccccccc"
       id="path3343"
       d="m 354.27673,396.70527 0,67.75806 321.07888,1.67251 0,-115.19837 -525.06996,-0.66901 137.20784,-151.12939 11.73512,0 0,-25.54515 -52.57337,0 0,19.3954 9.8575,0 -174.618704,188.75027 0,24.59903 272.174024,-0.94612"
       style="fill:none;stroke:#636363;stroke-width:1.31943893;stroke-linecap:butt;stroke-linejoin:miter;stroke-miterlimit:4;stroke-opacity:1;stroke-dasharray:10.55551123, 10.55551123;stroke-dashoffset:13.19438905" />
    <flowRoot
       transform="matrix(0.8296984,-0.2999471,0.2976307,0.8361556,-187.76435,215.60506)"
       style="font-size:12px;font-style:normal;font-variant:normal;font-weight:normal;font-stretch:normal;text-align:center;text-anchor:middle;fill:#000000;fill-opacity:1;stroke:none;font-family:Sans;-inkscape-font-specification:Sans"
       id="flowRoot3421"
       xml:space="preserve"><flowRegion
         id="flowRegion3423"><rect
           style="text-align:center;text-anchor:middle"
           y="241.95163"
           x="627.14288"
           height="49.684742"
           width="65.955154"
           id="rect3425" /></flowRegion><flowPara
         id="flowPara3427">Visible Science Combiner</flowPara></flowRoot>    <path
       d="m 226.65911,192.9657 c 1.88295,2.15621 6.75654,0.93911 10.87854,-2.71672 4.122,-3.65584 5.93919,-8.3729 4.05624,-10.52911 l -1.26754,-1.41203 m 0.0157,0.0177 c 1.87163,2.14325 0.0654,6.83194 -4.03186,10.46582 -4.09723,3.63386 -8.94151,4.84364 -10.81314,2.70039 -1.87163,-2.14325 -0.0654,-6.83194 4.03186,-10.46582 4.09722,-3.63386 8.94152,-4.84365 10.81314,-2.70039 z m -13.64019,14.68913 -1.31349,-1.64776"
       style="fill:#000000;fill-opacity:0;fill-rule:evenodd;stroke:#000000;stroke-width:0.65971947;stroke-miterlimit:4;stroke-opacity:1;stroke-dasharray:none;stroke-dashoffset:0"
       id="path3337"
       inkscape:connector-curvature="0" />
    <path
       id="path3341"
       d="M 232.28727,185.15314 215.26964,152.60718"
       style="fill:none;stroke:#3c3c3c;stroke-width:0.86237198;stroke-linecap:butt;stroke-linejoin:miter;stroke-miterlimit:4;stroke-opacity:1;stroke-dasharray:6.89897563, 1.72474391, 0.86237196, 1.72474391;stroke-dashoffset:0"
       inkscape:connector-curvature="0" />
    <g
       transform="matrix(0.98907564,0.14740887,-0.14740887,0.98907564,-9.4179266,4.0459623)"
       id="g3102">
      <g
         id="g3097">
        <rect
           transform="matrix(0.5978712,0.8015922,-0.7971177,0.6038239,0,0)"
           y="-140.64108"
           x="165.28693"
           height="27.074306"
           width="72.764999"
           id="rect3339"
           style="fill:none;stroke:#000000;stroke-width:0.86238384;stroke-miterlimit:4;stroke-opacity:1;stroke-dasharray:none;stroke-dashoffset:0" />
        <text
           transform="matrix(0.6007833,0.8007509,-0.7945671,0.605459,0,0)"
           id="text3459"
           y="-123.68398"
           x="167.21872"
           style="font-size:10.01444149px;font-style:normal;font-variant:normal;font-weight:normal;font-stretch:normal;fill:#000000;fill-opacity:1;stroke:none;font-family:Sans;-inkscape-font-specification:Sans"
           xml:space="preserve"><tspan
             y="-123.68398"
             x="167.21872"
             id="tspan3461"
             sodipodi:role="line">Tip-tilt sensor</tspan></text>
      </g>
    </g>
    <text
       transform="scale(0.99613123,1.0038838)"
       xml:space="preserve"
       style="font-size:15.70562649px;font-style:normal;font-variant:normal;font-weight:normal;font-stretch:normal;fill:#000000;fill-opacity:1;stroke:none;font-family:Sans;-inkscape-font-specification:Sans"
       x="220.79762"
       y="484.1665"
       id="text3467"><tspan
         style="font-size:12px"
         sodipodi:role="line"
         id="tspan3469"
         x="220.79762"
         y="484.1665">Beam Compressor</tspan></text>
    <path
       inkscape:connector-curvature="0"
       sodipodi:nodetypes="cc"
       id="path4784"
       d="m 301.90408,182.36964 25.23461,-26.09947"
       style="fill:none;stroke:#000000;stroke-width:1.31943893;stroke-linecap:butt;stroke-linejoin:miter;stroke-miterlimit:4;stroke-opacity:1;stroke-dasharray:none;marker-start:url(#Arrow1Mstart)" />
    <text
       transform="scale(0.99613123,1.0038838)"
       id="text5301"
       y="151.96857"
       x="366.16962"
       style="font-size:11.80283928px;font-style:normal;font-variant:normal;font-weight:normal;font-stretch:normal;text-align:center;text-anchor:middle;fill:#000000;fill-opacity:1;stroke:none;font-family:Sans;-inkscape-font-specification:Sans"
       xml:space="preserve"><tspan
         id="tspan5305"
         y="151.96857"
         x="366.16962"
         sodipodi:role="line">Vacuum envelope</tspan></text>
    <path
       inkscape:connector-curvature="0"
       id="path5852"
       d="m 38.753576,154.64724 3.319196,3.34503 3.651115,-3.67954"
       style="fill:none;stroke:#000000;stroke-width:0.65971947px;stroke-linecap:butt;stroke-linejoin:miter;stroke-opacity:1" />
    <path
       inkscape:connector-curvature="0"
       style="fill:none;stroke:#000000;stroke-width:0.65971947px;stroke-linecap:butt;stroke-linejoin:miter;stroke-opacity:1"
       d="m 150.61045,154.64724 3.31921,3.34503 3.65112,-3.67954"
       id="path5854" />
    <path
       inkscape:connector-curvature="0"
       id="path5856"
       d="m 72.739846,158.49679 -1.75108,-4.38911 -4.79073,1.94117"
       style="fill:none;stroke:#000000;stroke-width:0.65971947px;stroke-linecap:butt;stroke-linejoin:miter;stroke-opacity:1" />
    <path
       inkscape:connector-curvature="0"
       style="fill:none;stroke:#000000;stroke-width:0.65971947px;stroke-linecap:butt;stroke-linejoin:miter;stroke-opacity:1"
       d="m 127.20767,156.47835 -4.25718,-1.99291 -2.17527,4.71934"
       id="path5858" />
    <path
       inkscape:connector-curvature="0"
       id="path5860"
       d="m 88.609952,148.76825 7.3635,7.42078 8.099838,-8.16287"
       style="fill:none;stroke:#000000;stroke-width:1.4635582px;stroke-linecap:butt;stroke-linejoin:miter;stroke-opacity:1" />
    <path
       inkscape:connector-curvature="0"
       style="fill:none;stroke:#000000;stroke-width:1.4635582px;stroke-linecap:butt;stroke-linejoin:miter;stroke-opacity:1"
       d="m 184.09265,192.77699 7.36349,-7.4208 -8.09985,-8.16288"
       id="path5862" />
    <path
       inkscape:connector-curvature="0"
       id="path5864"
       d="m 188.52217,277.36905 1.26194,10.41724 11.37048,-1.39892"
       style="fill:none;stroke:#000000;stroke-width:1.4635582px;stroke-linecap:butt;stroke-linejoin:miter;stroke-opacity:1" />
    <path
       inkscape:connector-curvature="0"
       id="path5866"
       d="m 308.95442,396.19206 7.36347,-7.42079 -8.09983,-8.16288"
       style="fill:none;stroke:#000000;stroke-width:1.4635582px;stroke-linecap:butt;stroke-linejoin:miter;stroke-opacity:1" />
    <path
       inkscape:connector-curvature="0"
       style="fill:none;stroke:#000000;stroke-width:1.4635582px;stroke-linecap:butt;stroke-linejoin:miter;stroke-opacity:1"
       d="m 389.55979,436.54395 -7.36347,-7.4208 8.09983,-8.16287"
       id="path5868" />
    <path
       inkscape:connector-curvature="0"
       style="fill:none;stroke:#000000;stroke-width:0.65971947px;stroke-linecap:butt;stroke-linejoin:miter;stroke-opacity:1"
       d="m 169.63411,457.25188 -3.4176,3.24282 3.53955,3.78862"
       id="path5870" />
    <path
       inkscape:connector-curvature="0"
       id="path5872"
       d="m 166.44574,424.61617 2.49141,-4.00927 -4.37614,-2.76189"
       style="fill:none;stroke:#000000;stroke-width:0.65971947px;stroke-linecap:butt;stroke-linejoin:miter;stroke-opacity:1" />
    <path
       inkscape:connector-curvature="0"
       style="fill:none;stroke:#000000;stroke-width:0.65971947px;stroke-linecap:butt;stroke-linejoin:miter;stroke-opacity:1"
       d="m 388.9978,342.16124 2.49141,-4.00927 -4.37615,-2.76188"
       id="path5874" />
    <text
       transform="scale(0.99613123,1.0038838)"
       id="text5876"
       y="46.812553"
       x="46.486183"
       style="font-size:12.04828548px;font-style:normal;font-variant:normal;font-weight:normal;font-stretch:normal;fill:#000000;fill-opacity:1;stroke:none;font-family:Sans;-inkscape-font-specification:Sans"
       xml:space="preserve"><tspan
         y="46.812553"
         x="46.486183"
         id="tspan5878"
         sodipodi:role="line">Incoming Starlight</tspan></text>
    <rect
       transform="matrix(0.94073901,-0.3391314,0.33450159,0.94239519,0,0)"
       y="325.76309"
       x="306.32623"
       height="97.193283"
       width="54.421375"
       id="rect3295"
       style="fill:none;stroke:#000000;stroke-width:0.72156173;stroke-linejoin:miter;stroke-miterlimit:4;stroke-opacity:1;stroke-dasharray:none;stroke-dashoffset:0" />
    <rect
       style="fill:none;stroke:#000000;stroke-width:0.72156173;stroke-linejoin:miter;stroke-miterlimit:4;stroke-opacity:1;stroke-dasharray:none;stroke-dashoffset:0"
       id="rect3303"
       width="54.421375"
       height="97.193283"
       x="364.93356"
       y="325.68301"
       transform="matrix(0.94073901,-0.3391314,0.33450159,0.94239519,0,0)" />
    <rect
       transform="matrix(0.94073901,-0.3391314,0.33450159,0.94239519,0,0)"
       y="325.50555"
       x="423.02612"
       height="97.193283"
       width="54.421375"
       id="rect3305"
       style="fill:none;stroke:#000000;stroke-width:0.72156173;stroke-linejoin:miter;stroke-miterlimit:4;stroke-opacity:1;stroke-dasharray:none;stroke-dashoffset:0" />
    <rect
       style="fill:none;stroke:#000000;stroke-width:0.72156173;stroke-linejoin:miter;stroke-miterlimit:4;stroke-opacity:1;stroke-dasharray:none;stroke-dashoffset:0"
       id="rect3307"
       width="54.421375"
       height="97.193283"
       x="480.96854"
       y="325.39954"
       transform="matrix(0.94073901,-0.3391314,0.33450159,0.94239519,0,0)" />
    <flowRoot
       inkscape:export-ydpi="1202.4702"
       inkscape:export-xdpi="1202.4702"
       inkscape:export-filename="/home/guest1/public_html/MROI_overview.png"
       xml:space="preserve"
       id="flowRoot3317"
       style="font-size:12px;font-style:normal;font-variant:normal;font-weight:normal;font-stretch:normal;text-align:center;text-anchor:middle;fill:#000000;fill-opacity:1;stroke:none;font-family:Sans;-inkscape-font-specification:Sans"
       transform="matrix(0.8357096,-0.3021201,0.2997869,0.8422136,-137.8875,194.6805)"><flowRegion
         id="flowRegion3319"><rect
           id="rect3321"
           width="65.955154"
           height="49.684742"
           x="627.14288"
           y="241.95163"
           style="text-align:center;text-anchor:middle" /></flowRegion><flowPara
         id="flowPara3323">Fringe Tracking Combiner</flowPara></flowRoot>    <flowRoot
       transform="matrix(0.8101254,-0.2928711,0.2906094,0.8164303,-63.321761,175.7056)"
       style="font-size:12px;font-style:normal;font-variant:normal;font-weight:normal;font-stretch:normal;text-align:center;text-anchor:middle;fill:#000000;fill-opacity:1;stroke:none;font-family:Sans;-inkscape-font-specification:Sans"
       id="flowRoot3325"
       xml:space="preserve"><flowRegion
         id="flowRegion3327"><rect
           style="text-align:center;text-anchor:middle"
           y="241.95163"
           x="627.14288"
           height="49.684742"
           width="65.955154"
           id="rect3329" /></flowRegion><flowPara
         id="flowPara3331">Infrared Science Combiner</flowPara></flowRoot>    <text
       sodipodi:linespacing="125%"
       id="text3124"
       y="399.98166"
       x="609.52332"
       style="font-size:12px;font-style:normal;font-weight:normal;line-height:125%;letter-spacing:0px;word-spacing:0px;fill:#000000;fill-opacity:1;stroke:none;font-family:Sans"
       xml:space="preserve"><tspan
         y="399.98166"
         x="609.52332"
         id="tspan3126"
         sodipodi:role="line">Delay </tspan><tspan
         id="tspan4558"
         y="414.98166"
         x="609.52332"
         sodipodi:role="line">Line</tspan></text>
    <text
       sodipodi:linespacing="125%"
       id="text3128"
       y="280.18201"
       x="231.31464"
       style="font-size:12px;font-style:normal;font-weight:normal;line-height:125%;letter-spacing:0px;word-spacing:0px;fill:#000000;fill-opacity:1;stroke:none;font-family:Sans"
       xml:space="preserve"><tspan
         y="280.18201"
         x="231.31464"
         id="tspan3130"
         sodipodi:role="line">Beam relay</tspan></text>
    <text
       sodipodi:linespacing="125%"
       id="text3132"
       y="338.29736"
       x="513.45538"
       style="font-size:12px;font-style:normal;font-weight:normal;line-height:125%;letter-spacing:0px;word-spacing:0px;fill:#000000;fill-opacity:1;stroke:none;font-family:Sans"
       xml:space="preserve"><tspan
         y="338.29736"
         x="513.45538"
         id="tspan3134"
         sodipodi:role="line">Dichroic beamsplitters</tspan></text>
    <path
       sodipodi:nodetypes="cc"
       inkscape:connector-curvature="0"
       id="path3136"
       d="M 511.11203,327.9866 490.02178,310.17704"
       style="fill:none;stroke:#000000;stroke-width:1px;stroke-linecap:butt;stroke-linejoin:miter;stroke-opacity:1;marker-end:url(#Arrow2Mend)" />
    <text
       sodipodi:linespacing="125%"
       id="text3132-0"
       y="108.67776"
       x="254.38892"
       style="font-size:12px;font-style:normal;font-weight:normal;line-height:125%;letter-spacing:0px;word-spacing:0px;fill:#000000;fill-opacity:1;stroke:none;font-family:Sans"
       xml:space="preserve"><tspan
         y="108.67776"
         x="254.38892"
         id="tspan3134-4"
         sodipodi:role="line">Dichroic beamsplitter</tspan></text>
    <path
       sodipodi:nodetypes="cc"
       inkscape:connector-curvature="0"
       id="path3136-0"
       d="m 266.02109,115.38291 -26.71432,58.11536"
       style="fill:none;stroke:#000000;stroke-width:1px;stroke-linecap:butt;stroke-linejoin:miter;stroke-opacity:1;marker-end:url(#Arrow2Mend)" />
    <text
       sodipodi:linespacing="125%"
       id="text3132-0-6"
       y="300.66153"
       x="41.586384"
       style="font-size:12px;font-style:normal;font-weight:normal;line-height:125%;letter-spacing:0px;word-spacing:0px;fill:#000000;fill-opacity:1;stroke:none;font-family:Sans"
       xml:space="preserve"><tspan
         y="300.66153"
         x="41.586384"
         id="tspan3134-4-6"
         sodipodi:role="line">Unit Telescope</tspan></text>
    <path
       sodipodi:nodetypes="cc"
       inkscape:connector-curvature="0"
       id="path3136-7"
       d="M 553.85052,325.63464 542.03178,287.95753"
       style="fill:none;stroke:#000000;stroke-width:1px;stroke-linecap:butt;stroke-linejoin:miter;stroke-opacity:1;marker-end:url(#Arrow2Mend)" />
    <path
       sodipodi:nodetypes="cc"
       inkscape:connector-curvature="0"
       id="path3136-1"
       d="m 596.89687,324.31013 -1.88495,-51.5844"
       style="fill:none;stroke:#000000;stroke-width:1px;stroke-linecap:butt;stroke-linejoin:miter;stroke-opacity:1;marker-end:url(#Arrow2Mend)" />
    <flowRoot
       transform="matrix(0.2928711,0.8101254,-0.8164303,0.2906094,616.12505,-439.6624)"
       style="font-size:12px;font-style:normal;font-variant:normal;font-weight:normal;font-stretch:normal;text-align:center;text-anchor:middle;fill:#000000;fill-opacity:1;stroke:none;font-family:Sans;-inkscape-font-specification:Sans"
       id="flowRoot3325-8"
       xml:space="preserve"><flowRegion
         id="flowRegion3327-2"><rect
           style="text-align:center;text-anchor:middle"
           y="241.95163"
           x="627.14288"
           height="40.507462"
           width="85.596596"
           id="rect3329-4" /></flowRegion><flowPara
         style="font-size:12.73125935px"
         id="flowPara3331-8">Visitor</flowPara><flowPara
         style="font-size:12.73125935px"
         id="flowPara4486">Instrument</flowPara></flowRoot>    <flowRoot
       style="fill:#000000;stroke:none;stroke-opacity:1;stroke-width:1px;stroke-linejoin:miter;stroke-linecap:butt;fill-opacity:1;font-family:Times New Roman;font-style:normal;font-weight:normal;font-size:12px;-inkscape-font-specification:'Times New Roman,';font-stretch:normal;font-variant:normal;text-anchor:start;text-align:start;writing-mode:lr;line-height:125%;letter-spacing:0px;word-spacing:0px"
       id="flowRoot3096"
       xml:space="preserve"><flowRegion
         id="flowRegion3098"><rect
           y="201.98676"
           x="615.89404"
           height="12.582782"
           width="7.2847681"
           id="rect3100" /></flowRegion><flowPara
         id="flowPara3102" /></flowRoot>    <flowRoot
       style="fill:#000000;stroke:none;stroke-opacity:1;stroke-width:1px;stroke-linejoin:miter;stroke-linecap:butt;fill-opacity:1;font-family:Times New Roman;font-style:normal;font-weight:normal;font-size:12px;-inkscape-font-specification:'Times New Roman,';font-stretch:normal;font-variant:normal;text-anchor:start;text-align:start;writing-mode:lr;line-height:125%;letter-spacing:0px;word-spacing:0px"
       id="flowRoot3104"
       xml:space="preserve"><flowRegion
         id="flowRegion3106"><rect
           y="173.50993"
           x="606.6225"
           height="12.582782"
           width="7.2847681"
           id="rect3108" /></flowRegion><flowPara
         id="flowPara3110" /></flowRoot>  </g>
</svg>
