<?xml version="1.0" encoding="UTF-8" standalone="no"?>
<!-- Created with Inkscape (http://www.inkscape.org/) -->

<svg
   xmlns:dc="http://purl.org/dc/elements/1.1/"
   xmlns:cc="http://creativecommons.org/ns#"
   xmlns:rdf="http://www.w3.org/1999/02/22-rdf-syntax-ns#"
   xmlns:svg="http://www.w3.org/2000/svg"
   xmlns="http://www.w3.org/2000/svg"
   xmlns:sodipodi="http://sodipodi.sourceforge.net/DTD/sodipodi-0.dtd"
   xmlns:inkscape="http://www.inkscape.org/namespaces/inkscape"
   width="297mm"
   height="210mm"
   id="svg13834"
   version="1.1"
   inkscape:version="0.48.5 r10040"
   sodipodi:docname="lattice.svg">
  <sodipodi:namedview
     inkscape:document-units="mm"
     pagecolor="#ffffff"
     bordercolor="#666666"
     borderopacity="1.0"
     inkscape:pageopacity="0.0"
     inkscape:pageshadow="2"
     inkscape:zoom="0.76065609"
     inkscape:cx="471.80409"
     inkscape:cy="372.04724"
     inkscape:current-layer="layer1"
     id="namedview13838"
     showgrid="false"
     inkscape:window-width="1210"
     inkscape:window-height="756"
     inkscape:window-x="0"
     inkscape:window-y="0"
     inkscape:window-maximized="0">
    <inkscape:grid
       type="xygrid"
       id="grid13843" />
  </sodipodi:namedview>
  <defs
     id="defs13836">
    <marker
       inkscape:stockid="Arrow1Mend"
       orient="auto"
       refY="0.0"
       refX="0.0"
       id="Arrow1Mend"
       style="overflow:visible;">
      <path
         id="path3804"
         d="M 0.0,0.0 L 5.0,-5.0 L -12.5,0.0 L 5.0,5.0 L 0.0,0.0 z "
         style="fill-rule:evenodd;stroke:#000000;stroke-width:1.0pt;marker-start:none;"
         transform="scale(0.4) rotate(180) translate(10,0)" />
    </marker>
    <marker
       inkscape:stockid="Arrow1Mstart"
       orient="auto"
       refY="0.0"
       refX="0.0"
       id="Arrow1Mstart"
       style="overflow:visible">
      <path
         id="path3801"
         d="M 0.0,0.0 L 5.0,-5.0 L -12.5,0.0 L 5.0,5.0 L 0.0,0.0 z "
         style="fill-rule:evenodd;stroke:#000000;stroke-width:1.0pt;marker-start:none"
         transform="scale(0.4) translate(10,0)" />
    </marker>
    <marker
       inkscape:stockid="Arrow1Lstart"
       orient="auto"
       refY="0.0"
       refX="0.0"
       id="Arrow1Lstart"
       style="overflow:visible">
      <path
         id="path3795"
         d="M 0.0,0.0 L 5.0,-5.0 L -12.5,0.0 L 5.0,5.0 L 0.0,0.0 z "
         style="fill-rule:evenodd;stroke:#000000;stroke-width:1.0pt;marker-start:none"
         transform="scale(0.8) translate(12.5,0)" />
    </marker>
  </defs>
  <metadata
     id="metadata13840">
    <rdf:RDF>
      <cc:Work
         rdf:about="">
        <dc:format>image/svg+xml</dc:format>
        <dc:type
           rdf:resource="http://purl.org/dc/dcmitype/StillImage" />
        <dc:title />
      </cc:Work>
    </rdf:RDF>
  </metadata>
  <g
     inkscape:label="Layer 1"
     inkscape:groupmode="layer"
     id="layer1">
    <path
       style="fill:none;stroke:#000000;stroke-width:2.48031497;stroke-linejoin:miter;stroke-miterlimit:4;stroke-opacity:1;stroke-dasharray:none;stroke-dashoffset:0"
       d="m 380,244.09448 c -8.76509,-3.40301 -18.33737,-1.71561 -27.67258,-4.82735 -8.30904,-2.76968 -29.5576,-12.17162 -38.12498,-7.88793 -16.33226,8.16614 7.52376,37.53867 1.31466,49.95688 -0.89587,1.79172 -38.84931,32.62492 -14.46121,40.75429 22.63952,7.5465 38.6534,-29.70864 52.58619,-15.77586 8.65151,8.65152 27.40622,58.04633 55.21549,30.23706 16.56782,-16.56782 -16.46627,-40.82047 -19.71982,-47.32757 -5.60158,-11.20315 22.83637,-18.74532 14.4612,-35.49567 -2.49747,-4.99494 -18.35367,-8.26957 -23.59895,-9.63385 z"
       id="path13847"
       inkscape:connector-curvature="0" />
    <path
       sodipodi:type="arc"
       style="fill:#000000;fill-opacity:1;stroke:#000000;stroke-width:2.48031497;stroke-linejoin:miter;stroke-miterlimit:4;stroke-opacity:1;stroke-dasharray:none;stroke-dashoffset:0"
       id="path13849"
       sodipodi:cx="348.38345"
       sodipodi:cy="278.70676"
       sodipodi:rx="3.9439638"
       sodipodi:ry="3.9439638"
       d="m 352.32742,278.70676 a 3.9439638,3.9439638 0 1 1 -7.88793,0 3.9439638,3.9439638 0 1 1 7.88793,0 z"
       transform="translate(7.6725829,5.3877258)" />
    <path
       style="fill:none;stroke:#000000;stroke-width:2.48031497;stroke-linejoin:miter;stroke-miterlimit:4;stroke-opacity:1;stroke-dasharray:none;stroke-dashoffset:0"
       d="m 520,244.09448 c -8.76509,-3.40301 -18.33737,-1.71561 -27.67258,-4.82735 -8.30904,-2.76968 -29.5576,-12.17162 -38.12498,-7.88793 -16.33226,8.16614 7.52376,37.53867 1.31466,49.95688 -0.89587,1.79172 -38.84931,32.62492 -14.46121,40.75429 22.63952,7.5465 38.6534,-29.70864 52.58619,-15.77586 8.65151,8.65152 27.40622,58.04633 55.21549,30.23706 16.56782,-16.56782 -16.46627,-40.82047 -19.71982,-47.32757 -5.60158,-11.20315 22.83637,-18.74532 14.4612,-35.49567 -2.49747,-4.99494 -18.35367,-8.26957 -23.59895,-9.63385 z"
       id="path14363"
       inkscape:connector-curvature="0" />
    <path
       inkscape:connector-curvature="0"
       id="path14359"
       d="m 660,244.09448 c -8.76509,-3.40301 -18.33737,-1.71561 -27.67258,-4.82735 -8.30904,-2.76968 -29.5576,-12.17162 -38.12498,-7.88793 -16.33226,8.16614 7.52376,37.53867 1.31466,49.95688 -0.89587,1.79172 -38.84931,32.62492 -14.46121,40.75429 22.63952,7.5465 38.6534,-29.70864 52.58619,-15.77586 8.65151,8.65152 27.40622,58.04633 55.21549,30.23706 16.56782,-16.56782 -16.46627,-40.82047 -19.71982,-47.32757 -5.60158,-11.20315 22.83637,-18.74532 14.4612,-35.49567 -2.49747,-4.99494 -18.35367,-8.26957 -23.59895,-9.63385 z"
       style="fill:none;stroke:#000000;stroke-width:2.48031497;stroke-linejoin:miter;stroke-miterlimit:4;stroke-opacity:1;stroke-dasharray:none;stroke-dashoffset:0" />
    <path
       sodipodi:type="arc"
       style="fill:#000000;fill-opacity:1;stroke:#000000;stroke-width:2.48031497;stroke-linejoin:miter;stroke-miterlimit:4;stroke-opacity:1;stroke-dasharray:none;stroke-dashoffset:0"
       id="path14365"
       sodipodi:cx="348.38345"
       sodipodi:cy="278.70676"
       sodipodi:rx="3.9439638"
       sodipodi:ry="3.9439638"
       d="m 352.32742,278.70676 a 3.9439638,3.9439638 0 1 1 -7.88793,0 3.9439638,3.9439638 0 1 1 7.88793,0 z"
       transform="translate(147.67258,5.3877258)" />
    <path
       transform="translate(287.67258,5.3877258)"
       d="m 352.32742,278.70676 a 3.9439638,3.9439638 0 1 1 -7.88793,0 3.9439638,3.9439638 0 1 1 7.88793,0 z"
       sodipodi:ry="3.9439638"
       sodipodi:rx="3.9439638"
       sodipodi:cy="278.70676"
       sodipodi:cx="348.38345"
       id="path14361"
       style="fill:#000000;fill-opacity:1;stroke:#000000;stroke-width:2.48031497;stroke-linejoin:miter;stroke-miterlimit:4;stroke-opacity:1;stroke-dasharray:none;stroke-dashoffset:0"
       sodipodi:type="arc" />
    <path
       style="fill:none;stroke:#000000;stroke-width:2.48031497;stroke-linejoin:miter;stroke-miterlimit:4;stroke-opacity:1;stroke-dasharray:none;stroke-dashoffset:0"
       d="m 383.94396,380.15052 c -8.76509,-3.40301 -18.33737,-1.71561 -27.67258,-4.82735 -8.30904,-2.76968 -29.5576,-12.17162 -38.12498,-7.88793 -16.33226,8.16614 7.52376,37.53867 1.31466,49.95688 -0.89587,1.79172 -38.84931,32.62492 -14.46121,40.75429 22.63952,7.5465 38.6534,-29.70864 52.58619,-15.77586 8.65151,8.65152 27.40622,58.04633 55.21549,30.23706 16.56782,-16.56782 -16.46627,-40.82047 -19.71982,-47.32757 -5.60158,-11.20315 22.83637,-18.74532 14.4612,-35.49567 -2.49747,-4.99494 -18.35367,-8.26957 -23.59895,-9.63385 z"
       id="path14379"
       inkscape:connector-curvature="0" />
    <path
       style="fill:none;stroke:#000000;stroke-width:2.48031497;stroke-linejoin:miter;stroke-miterlimit:4;stroke-opacity:1;stroke-dasharray:none;stroke-dashoffset:0"
       d="m 383.94396,520.15052 c -8.76509,-3.40301 -18.33737,-1.71561 -27.67258,-4.82735 -8.30904,-2.76968 -29.5576,-12.17162 -38.12498,-7.88793 -16.33226,8.16614 7.52376,37.53867 1.31466,49.95688 -0.89587,1.79172 -38.84931,32.62492 -14.46121,40.75429 22.63952,7.5465 38.6534,-29.70864 52.58619,-15.77586 8.65151,8.65152 27.40622,58.04633 55.21549,30.23706 16.56782,-16.56782 -16.46627,-40.82047 -19.71982,-47.32757 -5.60158,-11.20315 22.83637,-18.74532 14.4612,-35.49567 -2.49747,-4.99494 -18.35367,-8.26957 -23.59895,-9.63385 z"
       id="path14391"
       inkscape:connector-curvature="0" />
    <path
       style="fill:none;stroke:#000000;stroke-width:2.48031497;stroke-linejoin:miter;stroke-miterlimit:4;stroke-opacity:1;stroke-dasharray:none;stroke-dashoffset:0"
       d="m 803.94396,520.15052 c -8.76509,-3.40301 -18.33737,-1.71561 -27.67258,-4.82735 -8.30904,-2.76968 -29.5576,-12.17162 -38.12498,-7.88793 -16.33226,8.16614 7.52376,37.53867 1.31466,49.95688 -0.89587,1.79172 -38.84931,32.62492 -14.46121,40.75429 22.63952,7.5465 38.6534,-29.70864 52.58619,-15.77586 8.65151,8.65152 27.40622,58.04633 55.21549,30.23706 16.56782,-16.56782 -16.46627,-40.82047 -19.71982,-47.32757 -5.60158,-11.20315 22.83637,-18.74532 14.4612,-35.49567 -2.49747,-4.99494 -18.35367,-8.26957 -23.59895,-9.63385 z"
       id="path14403"
       inkscape:connector-curvature="0" />
    <path
       style="fill:none;stroke:#000000;stroke-width:2.48031497;stroke-linejoin:miter;stroke-miterlimit:4;stroke-opacity:1;stroke-dasharray:none;stroke-dashoffset:0"
       d="m 803.94396,380.15052 c -8.76509,-3.40301 -18.33737,-1.71561 -27.67258,-4.82735 -8.30904,-2.76968 -29.5576,-12.17162 -38.12498,-7.88793 -16.33226,8.16614 7.52376,37.53867 1.31466,49.95688 -0.89587,1.79172 -38.84931,32.62492 -14.46121,40.75429 22.63952,7.5465 38.6534,-29.70864 52.58619,-15.77586 8.65151,8.65152 27.40622,58.04633 55.21549,30.23706 16.56782,-16.56782 -16.46627,-40.82047 -19.71982,-47.32757 -5.60158,-11.20315 22.83637,-18.74532 14.4612,-35.49567 -2.49747,-4.99494 -18.35367,-8.26957 -23.59895,-9.63385 z"
       id="path14415"
       inkscape:connector-curvature="0" />
    <path
       style="fill:none;stroke:#000000;stroke-width:2.48031497;stroke-linejoin:miter;stroke-miterlimit:4;stroke-opacity:1;stroke-dasharray:none;stroke-dashoffset:0"
       d="m 803.94396,240.15052 c -8.76509,-3.40301 -18.33737,-1.71561 -27.67258,-4.82735 -8.30904,-2.76968 -29.5576,-12.17162 -38.12498,-7.88793 -16.33226,8.16614 7.52376,37.53867 1.31466,49.95688 -0.89587,1.79172 -38.84931,32.62492 -14.46121,40.75429 22.63952,7.5465 38.6534,-29.70864 52.58619,-15.77586 8.65151,8.65152 27.40622,58.04633 55.21549,30.23706 16.56782,-16.56782 -16.46627,-40.82047 -19.71982,-47.32757 -5.60158,-11.20315 22.83637,-18.74532 14.4612,-35.49567 -2.49747,-4.99494 -18.35367,-8.26957 -23.59895,-9.63385 z"
       id="path14427"
       inkscape:connector-curvature="0" />
    <path
       inkscape:connector-curvature="0"
       id="path14367"
       d="m 803.94396,240.15052 c -8.76509,-3.40301 -18.33737,-1.71561 -27.67258,-4.82735 -8.30904,-2.76968 -29.5576,-12.17162 -38.12498,-7.88793 -16.33226,8.16614 7.52376,37.53867 1.31466,49.95688 -0.89587,1.79172 -38.84931,32.62492 -14.46121,40.75429 22.63952,7.5465 38.6534,-29.70864 52.58619,-15.77586 8.65151,8.65152 27.40622,58.04633 55.21549,30.23706 16.56782,-16.56782 -16.46627,-40.82047 -19.71982,-47.32757 -5.60158,-11.20315 22.83637,-18.74532 14.4612,-35.49567 -2.49747,-4.99494 -18.35367,-8.26957 -23.59895,-9.63385 z"
       style="fill:none;stroke:#000000;stroke-width:2.48031497;stroke-linejoin:miter;stroke-miterlimit:4;stroke-opacity:1;stroke-dasharray:none;stroke-dashoffset:0" />
    <path
       sodipodi:type="arc"
       style="fill:#000000;fill-opacity:1;stroke:#000000;stroke-width:2.48031497;stroke-linejoin:miter;stroke-miterlimit:4;stroke-opacity:1;stroke-dasharray:none;stroke-dashoffset:0"
       id="path14381"
       sodipodi:cx="348.38345"
       sodipodi:cy="278.70676"
       sodipodi:rx="3.9439638"
       sodipodi:ry="3.9439638"
       d="m 352.32742,278.70676 a 3.9439638,3.9439638 0 1 1 -7.88793,0 3.9439638,3.9439638 0 1 1 7.88793,0 z"
       transform="translate(11.616547,141.44376)" />
    <path
       sodipodi:type="arc"
       style="fill:#000000;fill-opacity:1;stroke:#000000;stroke-width:2.48031497;stroke-linejoin:miter;stroke-miterlimit:4;stroke-opacity:1;stroke-dasharray:none;stroke-dashoffset:0"
       id="path14393"
       sodipodi:cx="348.38345"
       sodipodi:cy="278.70676"
       sodipodi:rx="3.9439638"
       sodipodi:ry="3.9439638"
       d="m 352.32742,278.70676 a 3.9439638,3.9439638 0 1 1 -7.88793,0 3.9439638,3.9439638 0 1 1 7.88793,0 z"
       transform="translate(11.616547,281.44376)" />
    <path
       sodipodi:type="arc"
       style="fill:#000000;fill-opacity:1;stroke:#000000;stroke-width:2.48031497;stroke-linejoin:miter;stroke-miterlimit:4;stroke-opacity:1;stroke-dasharray:none;stroke-dashoffset:0"
       id="path14405"
       sodipodi:cx="348.38345"
       sodipodi:cy="278.70676"
       sodipodi:rx="3.9439638"
       sodipodi:ry="3.9439638"
       d="m 352.32742,278.70676 a 3.9439638,3.9439638 0 1 1 -7.88793,0 3.9439638,3.9439638 0 1 1 7.88793,0 z"
       transform="translate(431.61655,281.44376)" />
    <path
       sodipodi:type="arc"
       style="fill:#000000;fill-opacity:1;stroke:#000000;stroke-width:2.48031497;stroke-linejoin:miter;stroke-miterlimit:4;stroke-opacity:1;stroke-dasharray:none;stroke-dashoffset:0"
       id="path14417"
       sodipodi:cx="348.38345"
       sodipodi:cy="278.70676"
       sodipodi:rx="3.9439638"
       sodipodi:ry="3.9439638"
       d="m 352.32742,278.70676 a 3.9439638,3.9439638 0 1 1 -7.88793,0 3.9439638,3.9439638 0 1 1 7.88793,0 z"
       transform="translate(431.61655,141.44376)" />
    <path
       sodipodi:type="arc"
       style="fill:#000000;fill-opacity:1;stroke:#000000;stroke-width:2.48031497;stroke-linejoin:miter;stroke-miterlimit:4;stroke-opacity:1;stroke-dasharray:none;stroke-dashoffset:0"
       id="path14429"
       sodipodi:cx="348.38345"
       sodipodi:cy="278.70676"
       sodipodi:rx="3.9439638"
       sodipodi:ry="3.9439638"
       d="m 352.32742,278.70676 a 3.9439638,3.9439638 0 1 1 -7.88793,0 3.9439638,3.9439638 0 1 1 7.88793,0 z"
       transform="translate(431.61655,1.4437621)" />
    <path
       transform="translate(431.61655,1.4437621)"
       d="m 352.32742,278.70676 a 3.9439638,3.9439638 0 1 1 -7.88793,0 3.9439638,3.9439638 0 1 1 7.88793,0 z"
       sodipodi:ry="3.9439638"
       sodipodi:rx="3.9439638"
       sodipodi:cy="278.70676"
       sodipodi:cx="348.38345"
       id="path14369"
       style="fill:#000000;fill-opacity:1;stroke:#000000;stroke-width:2.48031497;stroke-linejoin:miter;stroke-miterlimit:4;stroke-opacity:1;stroke-dasharray:none;stroke-dashoffset:0"
       sodipodi:type="arc" />
    <path
       style="fill:none;stroke:#000000;stroke-width:2.48031497;stroke-linejoin:miter;stroke-miterlimit:4;stroke-opacity:1;stroke-dasharray:none;stroke-dashoffset:0"
       d="m 523.94396,380.15052 c -8.76509,-3.40301 -18.33737,-1.71561 -27.67258,-4.82735 -8.30904,-2.76968 -29.5576,-12.17162 -38.12498,-7.88793 -16.33226,8.16614 7.52376,37.53867 1.31466,49.95688 -0.89587,1.79172 -38.84931,32.62492 -14.46121,40.75429 22.63952,7.5465 38.6534,-29.70864 52.58619,-15.77586 8.65151,8.65152 27.40622,58.04633 55.21549,30.23706 16.56782,-16.56782 -16.46627,-40.82047 -19.71982,-47.32757 -5.60158,-11.20315 22.83637,-18.74532 14.4612,-35.49567 -2.49747,-4.99494 -18.35367,-8.26957 -23.59895,-9.63385 z"
       id="path14383"
       inkscape:connector-curvature="0" />
    <path
       style="fill:none;stroke:#000000;stroke-width:2.48031497;stroke-linejoin:miter;stroke-miterlimit:4;stroke-opacity:1;stroke-dasharray:none;stroke-dashoffset:0"
       d="m 523.94396,520.15052 c -8.76509,-3.40301 -18.33737,-1.71561 -27.67258,-4.82735 -8.30904,-2.76968 -29.5576,-12.17162 -38.12498,-7.88793 -16.33226,8.16614 7.52376,37.53867 1.31466,49.95688 -0.89587,1.79172 -38.84931,32.62492 -14.46121,40.75429 22.63952,7.5465 38.6534,-29.70864 52.58619,-15.77586 8.65151,8.65152 27.40622,58.04633 55.21549,30.23706 16.56782,-16.56782 -16.46627,-40.82047 -19.71982,-47.32757 -5.60158,-11.20315 22.83637,-18.74532 14.4612,-35.49567 -2.49747,-4.99494 -18.35367,-8.26957 -23.59895,-9.63385 z"
       id="path14395"
       inkscape:connector-curvature="0" />
    <path
       inkscape:connector-curvature="0"
       id="path14385"
       d="m 663.94396,380.15052 c -8.76509,-3.40301 -18.33737,-1.71561 -27.67258,-4.82735 -8.30904,-2.76968 -29.5576,-12.17162 -38.12498,-7.88793 -16.33226,8.16614 7.52376,37.53867 1.31466,49.95688 -0.89587,1.79172 -38.84931,32.62492 -14.46121,40.75429 22.63952,7.5465 38.6534,-29.70864 52.58619,-15.77586 8.65151,8.65152 27.40622,58.04633 55.21549,30.23706 16.56782,-16.56782 -16.46627,-40.82047 -19.71982,-47.32757 -5.60158,-11.20315 22.83637,-18.74532 14.4612,-35.49567 -2.49747,-4.99494 -18.35367,-8.26957 -23.59895,-9.63385 z"
       style="fill:none;stroke:#000000;stroke-width:2.48031497;stroke-linejoin:miter;stroke-miterlimit:4;stroke-opacity:1;stroke-dasharray:none;stroke-dashoffset:0" />
    <path
       inkscape:connector-curvature="0"
       id="path14397"
       d="m 663.94396,520.15052 c -8.76509,-3.40301 -18.33737,-1.71561 -27.67258,-4.82735 -8.30904,-2.76968 -29.5576,-12.17162 -38.12498,-7.88793 -16.33226,8.16614 7.52376,37.53867 1.31466,49.95688 -0.89587,1.79172 -38.84931,32.62492 -14.46121,40.75429 22.63952,7.5465 38.6534,-29.70864 52.58619,-15.77586 8.65151,8.65152 27.40622,58.04633 55.21549,30.23706 16.56782,-16.56782 -16.46627,-40.82047 -19.71982,-47.32757 -5.60158,-11.20315 22.83637,-18.74532 14.4612,-35.49567 -2.49747,-4.99494 -18.35367,-8.26957 -23.59895,-9.63385 z"
       style="fill:none;stroke:#000000;stroke-width:2.48031497;stroke-linejoin:miter;stroke-miterlimit:4;stroke-opacity:1;stroke-dasharray:none;stroke-dashoffset:0" />
    <path
       sodipodi:type="arc"
       style="fill:#000000;fill-opacity:1;stroke:#000000;stroke-width:2.48031497;stroke-linejoin:miter;stroke-miterlimit:4;stroke-opacity:1;stroke-dasharray:none;stroke-dashoffset:0"
       id="path14387"
       sodipodi:cx="348.38345"
       sodipodi:cy="278.70676"
       sodipodi:rx="3.9439638"
       sodipodi:ry="3.9439638"
       d="m 352.32742,278.70676 a 3.9439638,3.9439638 0 1 1 -7.88793,0 3.9439638,3.9439638 0 1 1 7.88793,0 z"
       transform="translate(151.61654,141.44376)" />
    <path
       sodipodi:type="arc"
       style="fill:#000000;fill-opacity:1;stroke:#000000;stroke-width:2.48031497;stroke-linejoin:miter;stroke-miterlimit:4;stroke-opacity:1;stroke-dasharray:none;stroke-dashoffset:0"
       id="path14399"
       sodipodi:cx="348.38345"
       sodipodi:cy="278.70676"
       sodipodi:rx="3.9439638"
       sodipodi:ry="3.9439638"
       d="m 352.32742,278.70676 a 3.9439638,3.9439638 0 1 1 -7.88793,0 3.9439638,3.9439638 0 1 1 7.88793,0 z"
       transform="translate(151.61654,281.44376)" />
    <path
       transform="translate(291.61654,141.44376)"
       d="m 352.32742,278.70676 a 3.9439638,3.9439638 0 1 1 -7.88793,0 3.9439638,3.9439638 0 1 1 7.88793,0 z"
       sodipodi:ry="3.9439638"
       sodipodi:rx="3.9439638"
       sodipodi:cy="278.70676"
       sodipodi:cx="348.38345"
       id="path14389"
       style="fill:#000000;fill-opacity:1;stroke:#000000;stroke-width:2.48031497;stroke-linejoin:miter;stroke-miterlimit:4;stroke-opacity:1;stroke-dasharray:none;stroke-dashoffset:0"
       sodipodi:type="arc" />
    <path
       transform="translate(291.61654,281.44376)"
       d="m 352.32742,278.70676 a 3.9439638,3.9439638 0 1 1 -7.88793,0 3.9439638,3.9439638 0 1 1 7.88793,0 z"
       sodipodi:ry="3.9439638"
       sodipodi:rx="3.9439638"
       sodipodi:cy="278.70676"
       sodipodi:cx="348.38345"
       id="path14401"
       style="fill:#000000;fill-opacity:1;stroke:#000000;stroke-width:2.48031497;stroke-linejoin:miter;stroke-miterlimit:4;stroke-opacity:1;stroke-dasharray:none;stroke-dashoffset:0"
       sodipodi:type="arc" />
    <path
       style="fill:#000000;fill-opacity:1;fill-rule:nonzero;stroke:#000000;stroke-width:2.48031495999999985;stroke-linejoin:miter;stroke-miterlimit:4;stroke-opacity:1;stroke-dasharray:none;stroke-dashoffset:0;marker-start:url(#Arrow1Mstart);marker-end:url(#Arrow1Mend)"
       d="m 240,284.09448 0,140"
       id="path14458"
       inkscape:connector-curvature="0" />
    <path
       inkscape:connector-curvature="0"
       id="path15018"
       d="m 500,204.09448 -140,0"
       style="fill:#000000;fill-opacity:1;fill-rule:nonzero;stroke:#000000;stroke-width:2.48031497;stroke-linejoin:miter;stroke-miterlimit:4;stroke-opacity:1;stroke-dasharray:none;stroke-dashoffset:0;marker-start:url(#Arrow1Mstart);marker-end:url(#Arrow1Mend)"
       sodipodi:nodetypes="cc" />
    <g
       id="g15060"
       transform="matrix(0.70204799,0,0,0.70204799,160.51216,-80.590749)">
      <g
         id="content"
         transform="matrix(1.0629921,0,0,-1.0629921,-186.02362,789.27165)"
         xml:space="preserve"
         stroke-miterlimit="10.433"
         font-style="normal"
         font-variant="normal"
         font-weight="normal"
         font-stretch="normal"
         font-size-adjust="none"
         letter-spacing="normal"
         word-spacing="normal"
         style="font-style:normal;font-variant:normal;font-weight:normal;font-stretch:normal;letter-spacing:normal;word-spacing:normal;text-anchor:start;fill:none;stroke:#000000;stroke-linecap:butt;stroke-linejoin:miter;stroke-miterlimit:10.43299961;stroke-opacity:1;stroke-dasharray:none;stroke-dashoffset:0"><path
           d="m 470.16,438.09 0,0.05 0,0.06 0,0.05 0,0.05 0,0.05 0,0.05 0,0.04 0,0.05 0,0.04 0,0.04 -0.01,0.04 0,0.04 0,0.04 0,0.03 0,0.04 -0.01,0.03 -0.01,0.07 0,0.06 -0.02,0.05 -0.01,0.05 -0.02,0.05 -0.02,0.04 -0.02,0.04 -0.02,0.03 -0.03,0.03 -0.03,0.03 -0.04,0.03 -0.04,0.02 -0.04,0.02 -0.03,0.01 -0.02,0.01 -0.03,0 -0.02,0.01 -0.03,0.01 -0.03,0 -0.03,0.01 -0.03,0 -0.04,0.01 -0.03,0 -0.04,0 -0.03,0.01 -0.04,0 -0.04,0 -0.05,0 -0.04,0 -0.04,0 -0.05,0.01 -0.05,0 -0.05,0 -0.05,0 -0.05,0 c -3.09,-3.19 -7.47,-3.19 -9.06,-3.19 v -1.55 c 1,0 3.93,0 6.51,1.3 v -25.81 c 0,-1.8 -0.14,-2.39 -4.62,-2.39 h -1.6 v -1.55 c 1.75,0.16 6.08,0.16 8.07,0.16 2,0 6.32,0 8.07,-0.16 v 1.55 h -1.59 c -4.48,0 -4.64,0.54 -4.64,2.39 z"
           id="path15063"
           inkscape:connector-curvature="0"
           style="fill:#000000;stroke-width:0" /><path
           d="m 502.35,441.67 0.01,0.03 0.01,0.03 0.02,0.03 0.01,0.03 0.01,0.02 0.01,0.03 0.01,0.03 0,0.02 0.02,0.05 0.02,0.05 0.01,0.04 0.02,0.05 0.01,0.04 0.01,0.04 0.01,0.03 0.01,0.04 0.01,0.03 0.01,0.03 0,0.03 0.01,0.02 0.01,0.03 0,0.02 0.01,0.02 0,0.02 0,0.02 0,0.02 0.01,0.01 0,0.02 0,0.01 0,0.01 0,0.01 0,0.01 0,0.01 0,0.01 0,0.01 0,0 c 0,0.55 -0.45,0.99 -1,0.99 -0.34,0 -0.7,-0.14 -0.84,-0.44 l -17.3,-47.48 c -0.25,-0.64 -0.25,-0.85 -0.25,-0.89 0,-0.55 0.45,-1 1,-1 0.66,0 0.8,0.34 1.09,1.18 z"
           id="path15065"
           inkscape:connector-curvature="0"
           style="fill:#000000;stroke-width:0" /><path
           d="m 521.92,394.25 0,0.02 0,0.03 -0.01,0.01 0,0.02 0,0.01 -0.01,0.02 0,0.01 -0.01,0.02 -0.01,0.02 -0.01,0.02 -0.01,0.02 -0.01,0.03 -0.02,0.02 -0.02,0.03 -0.02,0.03 -0.02,0.03 -0.03,0.03 -0.03,0.04 -0.01,0.02 -0.02,0.02 -0.02,0.02 -0.02,0.02 -0.02,0.02 -0.02,0.03 -0.02,0.02 -0.02,0.02 -0.02,0.03 -0.02,0.02 -0.03,0.03 -0.02,0.03 -0.03,0.03 -0.03,0.03 -0.03,0.03 -0.03,0.03 -0.03,0.03 -0.03,0.03 -0.03,0.04 -0.04,0.03 -0.03,0.04 -0.04,0.03 -0.04,0.04 -0.04,0.04 c -6.22,6.28 -7.81,15.69 -7.81,23.31 0,8.67 1.89,17.35 8.02,23.56 0.64,0.61 0.64,0.71 0.64,0.86 0,0.35 -0.19,0.49 -0.49,0.49 -0.5,0 -4.98,-3.38 -7.92,-9.7 -2.55,-5.49 -3.14,-11.02 -3.14,-15.21 0,-3.89 0.55,-9.9 3.28,-15.54 2.99,-6.13 7.28,-9.36 7.78,-9.36 0.3,0 0.49,0.14 0.49,0.5 z"
           id="path15067"
           inkscape:connector-curvature="0"
           style="fill:#000000;stroke-width:0" /><path
           d="m 546.77,440.98 -0.04,0.06 -0.03,0.06 -0.03,0.05 -0.02,0.05 -0.03,0.05 -0.03,0.05 -0.02,0.05 -0.03,0.04 -0.03,0.04 -0.02,0.04 -0.03,0.04 -0.03,0.03 -0.03,0.04 -0.03,0.03 -0.03,0.03 -0.03,0.03 -0.03,0.02 -0.04,0.03 -0.03,0.02 -0.04,0.02 -0.05,0.02 -0.04,0.01 -0.05,0.02 -0.04,0.01 -0.06,0.01 -0.05,0.01 -0.06,0.01 -0.06,0.01 -0.07,0 -0.07,0.01 -0.07,0 -0.08,0 c -0.85,0 -0.94,-0.25 -1.28,-0.89 l -0.31,-4.09 13.4,-26.91 h -26.86 l 13.46,26.91 0.31,4.09 -16.85,-33.78 c -0.25,-0.45 -0.25,-0.55 -0.25,-0.59 0,-0.41 0.3,-0.41 1.1,-0.41 h 34.58 c 0.79,0 1.09,0 1.09,0.41 0,0.04 0,0.14 -0.25,0.59 z"
           id="path15069"
           inkscape:connector-curvature="0"
           style="fill:#000000;stroke-width:0" /><path
           d="m 583.71,409 0.05,-0.19 0.06,-0.19 0.07,-0.18 0.08,-0.18 0.08,-0.17 0.09,-0.16 0.09,-0.16 0.1,-0.16 0.11,-0.15 0.11,-0.15 0.11,-0.14 0.13,-0.13 0.12,-0.13 0.14,-0.12 0.14,-0.12 0.14,-0.11 0.15,-0.11 0.15,-0.1 0.15,-0.09 0.16,-0.09 0.17,-0.08 0.17,-0.07 0.17,-0.07 0.18,-0.06 0.17,-0.06 0.19,-0.04 0.18,-0.05 0.19,-0.03 0.19,-0.02 0.2,-0.02 0.2,-0.01 0.2,-0.01 c 1.73,0 2.88,1.14 3.68,2.74 0.85,1.79 1.49,4.84 1.49,4.93 0,0.5 -0.44,0.5 -0.6,0.5 -0.5,0 -0.54,-0.2 -0.7,-0.9 -0.69,-2.78 -1.64,-6.17 -3.74,-6.17 -1.04,0 -1.53,0.65 -1.53,2.29 0,1.1 0.6,3.44 0.99,5.17 l 1.41,5.4 c 0.13,0.75 0.63,2.64 0.84,3.39 0.25,1.14 0.75,3.03 0.75,3.32 0,0.91 -0.71,1.35 -1.46,1.35 -0.25,0 -1.54,-0.05 -1.93,-1.74 -0.95,-3.64 -3.14,-12.36 -3.74,-15 -0.06,-0.2 -2.04,-4.18 -5.68,-4.18 -2.6,0 -3.1,2.25 -3.1,4.09 0,2.78 1.41,6.72 2.7,10.16 0.6,1.5 0.85,2.18 0.85,3.14 0,2.23 -1.6,4.07 -4.1,4.07 -4.73,0 -6.57,-7.21 -6.57,-7.67 0,-0.5 0.5,-0.5 0.61,-0.5 0.5,0 0.54,0.11 0.79,0.91 1.24,4.33 3.14,6.17 5.04,6.17 0.43,0 1.25,-0.05 1.25,-1.64 0,-1.2 -0.57,-2.64 -0.87,-3.39 -1.84,-4.94 -2.88,-8.02 -2.88,-10.45 0,-4.74 3.43,-5.99 6.13,-5.99 3.29,0 5.08,2.24 5.93,3.35 z"
           id="path15071"
           inkscape:connector-curvature="0"
           style="fill:#000000;stroke-width:0" /><path
           d="m 609.22,418.65 0,0.37 -0.01,0.39 -0.01,0.39 -0.01,0.41 -0.04,0.84 -0.06,0.88 -0.08,0.92 -0.11,0.95 -0.13,0.97 -0.17,1.01 -0.19,1.02 -0.23,1.03 -0.27,1.05 -0.31,1.06 -0.34,1.07 -0.4,1.07 -0.21,0.53 -0.22,0.53 -0.24,0.53 -0.25,0.53 c -2.99,6.12 -7.27,9.36 -7.77,9.36 -0.29,0 -0.5,-0.19 -0.5,-0.49 0,-0.15 0,-0.25 0.94,-1.15 4.89,-4.92 7.73,-12.85 7.73,-23.27 0,-8.51 -1.84,-17.28 -8.03,-23.56 -0.64,-0.59 -0.64,-0.7 -0.64,-0.84 0,-0.3 0.21,-0.5 0.5,-0.5 0.5,0 4.97,3.39 7.92,9.71 2.53,5.47 3.13,11 3.13,15.19 z"
           id="path15073"
           inkscape:connector-curvature="0"
           style="fill:#000000;stroke-width:0" /></g>    </g>
    <g
       transform="matrix(0.70204799,0,0,0.70204799,-103.73341,100.83158)"
       id="g3132">
      <g
         style="font-style:normal;font-variant:normal;font-weight:normal;font-stretch:normal;letter-spacing:normal;word-spacing:normal;text-anchor:start;fill:none;stroke:#000000;stroke-linecap:butt;stroke-linejoin:miter;stroke-miterlimit:10.43299961;stroke-opacity:1;stroke-dasharray:none;stroke-dashoffset:0"
         word-spacing="normal"
         letter-spacing="normal"
         font-size-adjust="none"
         font-stretch="normal"
         font-weight="normal"
         font-variant="normal"
         font-style="normal"
         stroke-miterlimit="10.433"
         xml:space="preserve"
         transform="matrix(1.0629921,0,0,-1.0629921,-186.02362,789.27165)"
         id="g3134"><path
           style="fill:#000000;stroke-width:0"
           inkscape:connector-curvature="0"
           id="path3136"
           d="m 470.16,438.09 0,0.05 0,0.06 0,0.05 0,0.05 0,0.05 0,0.05 0,0.04 0,0.05 0,0.04 0,0.04 -0.01,0.04 0,0.04 0,0.04 0,0.03 0,0.04 -0.01,0.03 -0.01,0.07 0,0.06 -0.02,0.05 -0.01,0.05 -0.02,0.05 -0.02,0.04 -0.02,0.04 -0.02,0.03 -0.03,0.03 -0.03,0.03 -0.04,0.03 -0.04,0.02 -0.04,0.02 -0.03,0.01 -0.02,0.01 -0.03,0 -0.02,0.01 -0.03,0.01 -0.03,0 -0.03,0.01 -0.03,0 -0.04,0.01 -0.03,0 -0.04,0 -0.03,0.01 -0.04,0 -0.04,0 -0.05,0 -0.04,0 -0.04,0 -0.05,0.01 -0.05,0 -0.05,0 -0.05,0 -0.05,0 c -3.09,-3.19 -7.47,-3.19 -9.06,-3.19 v -1.55 c 1,0 3.93,0 6.51,1.3 v -25.81 c 0,-1.8 -0.14,-2.39 -4.62,-2.39 h -1.6 v -1.55 c 1.75,0.16 6.08,0.16 8.07,0.16 2,0 6.32,0 8.07,-0.16 v 1.55 h -1.59 c -4.48,0 -4.64,0.54 -4.64,2.39 z" /><path
           style="fill:#000000;stroke-width:0"
           inkscape:connector-curvature="0"
           id="path3138"
           d="m 502.35,441.67 0.01,0.03 0.01,0.03 0.02,0.03 0.01,0.03 0.01,0.02 0.01,0.03 0.01,0.03 0,0.02 0.02,0.05 0.02,0.05 0.01,0.04 0.02,0.05 0.01,0.04 0.01,0.04 0.01,0.03 0.01,0.04 0.01,0.03 0.01,0.03 0,0.03 0.01,0.02 0.01,0.03 0,0.02 0.01,0.02 0,0.02 0,0.02 0,0.02 0.01,0.01 0,0.02 0,0.01 0,0.01 0,0.01 0,0.01 0,0.01 0,0.01 0,0.01 0,0 c 0,0.55 -0.45,0.99 -1,0.99 -0.34,0 -0.7,-0.14 -0.84,-0.44 l -17.3,-47.48 c -0.25,-0.64 -0.25,-0.85 -0.25,-0.89 0,-0.55 0.45,-1 1,-1 0.66,0 0.8,0.34 1.09,1.18 z" /><path
           style="fill:#000000;stroke-width:0"
           inkscape:connector-curvature="0"
           id="path3140"
           d="m 521.92,394.25 0,0.02 0,0.03 -0.01,0.01 0,0.02 0,0.01 -0.01,0.02 0,0.01 -0.01,0.02 -0.01,0.02 -0.01,0.02 -0.01,0.02 -0.01,0.03 -0.02,0.02 -0.02,0.03 -0.02,0.03 -0.02,0.03 -0.03,0.03 -0.03,0.04 -0.01,0.02 -0.02,0.02 -0.02,0.02 -0.02,0.02 -0.02,0.02 -0.02,0.03 -0.02,0.02 -0.02,0.02 -0.02,0.03 -0.02,0.02 -0.03,0.03 -0.02,0.03 -0.03,0.03 -0.03,0.03 -0.03,0.03 -0.03,0.03 -0.03,0.03 -0.03,0.03 -0.03,0.04 -0.04,0.03 -0.03,0.04 -0.04,0.03 -0.04,0.04 -0.04,0.04 c -6.22,6.28 -7.81,15.69 -7.81,23.31 0,8.67 1.89,17.35 8.02,23.56 0.64,0.61 0.64,0.71 0.64,0.86 0,0.35 -0.19,0.49 -0.49,0.49 -0.5,0 -4.98,-3.38 -7.92,-9.7 -2.55,-5.49 -3.14,-11.02 -3.14,-15.21 0,-3.89 0.55,-9.9 3.28,-15.54 2.99,-6.13 7.28,-9.36 7.78,-9.36 0.3,0 0.49,0.14 0.49,0.5 z" /><path
           style="fill:#000000;stroke-width:0"
           inkscape:connector-curvature="0"
           id="path3142"
           d="m 546.77,440.98 -0.04,0.06 -0.03,0.06 -0.03,0.05 -0.02,0.05 -0.03,0.05 -0.03,0.05 -0.02,0.05 -0.03,0.04 -0.03,0.04 -0.02,0.04 -0.03,0.04 -0.03,0.03 -0.03,0.04 -0.03,0.03 -0.03,0.03 -0.03,0.03 -0.03,0.02 -0.04,0.03 -0.03,0.02 -0.04,0.02 -0.05,0.02 -0.04,0.01 -0.05,0.02 -0.04,0.01 -0.06,0.01 -0.05,0.01 -0.06,0.01 -0.06,0.01 -0.07,0 -0.07,0.01 -0.07,0 -0.08,0 c -0.85,0 -0.94,-0.25 -1.28,-0.89 l -0.31,-4.09 13.4,-26.91 h -26.86 l 13.46,26.91 0.31,4.09 -16.85,-33.78 c -0.25,-0.45 -0.25,-0.55 -0.25,-0.59 0,-0.41 0.3,-0.41 1.1,-0.41 h 34.58 c 0.79,0 1.09,0 1.09,0.41 0,0.04 0,0.14 -0.25,0.59 z" /><path
           style="fill:#000000;stroke-width:0"
           inkscape:connector-curvature="0"
           id="path3144"
           d="m 583.71,409 0.05,-0.19 0.06,-0.19 0.07,-0.18 0.08,-0.18 0.08,-0.17 0.09,-0.16 0.09,-0.16 0.1,-0.16 0.11,-0.15 0.11,-0.15 0.11,-0.14 0.13,-0.13 0.12,-0.13 0.14,-0.12 0.14,-0.12 0.14,-0.11 0.15,-0.11 0.15,-0.1 0.15,-0.09 0.16,-0.09 0.17,-0.08 0.17,-0.07 0.17,-0.07 0.18,-0.06 0.17,-0.06 0.19,-0.04 0.18,-0.05 0.19,-0.03 0.19,-0.02 0.2,-0.02 0.2,-0.01 0.2,-0.01 c 1.73,0 2.88,1.14 3.68,2.74 0.85,1.79 1.49,4.84 1.49,4.93 0,0.5 -0.44,0.5 -0.6,0.5 -0.5,0 -0.54,-0.2 -0.7,-0.9 -0.69,-2.78 -1.64,-6.17 -3.74,-6.17 -1.04,0 -1.53,0.65 -1.53,2.29 0,1.1 0.6,3.44 0.99,5.17 l 1.41,5.4 c 0.13,0.75 0.63,2.64 0.84,3.39 0.25,1.14 0.75,3.03 0.75,3.32 0,0.91 -0.71,1.35 -1.46,1.35 -0.25,0 -1.54,-0.05 -1.93,-1.74 -0.95,-3.64 -3.14,-12.36 -3.74,-15 -0.06,-0.2 -2.04,-4.18 -5.68,-4.18 -2.6,0 -3.1,2.25 -3.1,4.09 0,2.78 1.41,6.72 2.7,10.16 0.6,1.5 0.85,2.18 0.85,3.14 0,2.23 -1.6,4.07 -4.1,4.07 -4.73,0 -6.57,-7.21 -6.57,-7.67 0,-0.5 0.5,-0.5 0.61,-0.5 0.5,0 0.54,0.11 0.79,0.91 1.24,4.33 3.14,6.17 5.04,6.17 0.43,0 1.25,-0.05 1.25,-1.64 0,-1.2 -0.57,-2.64 -0.87,-3.39 -1.84,-4.94 -2.88,-8.02 -2.88,-10.45 0,-4.74 3.43,-5.99 6.13,-5.99 3.29,0 5.08,2.24 5.93,3.35 z" /><path
           style="fill:#000000;stroke-width:0"
           inkscape:connector-curvature="0"
           id="path3146"
           d="m 609.22,418.65 0,0.37 -0.01,0.39 -0.01,0.39 -0.01,0.41 -0.04,0.84 -0.06,0.88 -0.08,0.92 -0.11,0.95 -0.13,0.97 -0.17,1.01 -0.19,1.02 -0.23,1.03 -0.27,1.05 -0.31,1.06 -0.34,1.07 -0.4,1.07 -0.21,0.53 -0.22,0.53 -0.24,0.53 -0.25,0.53 c -2.99,6.12 -7.27,9.36 -7.77,9.36 -0.29,0 -0.5,-0.19 -0.5,-0.49 0,-0.15 0,-0.25 0.94,-1.15 4.89,-4.92 7.73,-12.85 7.73,-23.27 0,-8.51 -1.84,-17.28 -8.03,-23.56 -0.64,-0.59 -0.64,-0.7 -0.64,-0.84 0,-0.3 0.21,-0.5 0.5,-0.5 0.5,0 4.97,3.39 7.92,9.71 2.53,5.47 3.13,11 3.13,15.19 z" /></g>    </g>
  </g>
</svg>
