<?xml version="1.0" encoding="UTF-8" standalone="no"?>
<!-- Created with Inkscape (http://www.inkscape.org/) -->

<svg
   xmlns:dc="http://purl.org/dc/elements/1.1/"
   xmlns:cc="http://creativecommons.org/ns#"
   xmlns:rdf="http://www.w3.org/1999/02/22-rdf-syntax-ns#"
   xmlns:svg="http://www.w3.org/2000/svg"
   xmlns="http://www.w3.org/2000/svg"
   xmlns:sodipodi="http://sodipodi.sourceforge.net/DTD/sodipodi-0.dtd"
   xmlns:inkscape="http://www.inkscape.org/namespaces/inkscape"
   width="297mm"
   height="210mm"
   id="svg4329"
   version="1.1"
   inkscape:version="0.48.5 r10040"
   sodipodi:docname="noise-vector.svg">
  <sodipodi:namedview
     inkscape:document-units="mm"
     pagecolor="#ffffff"
     bordercolor="#666666"
     borderopacity="1.0"
     inkscape:pageopacity="0.0"
     inkscape:pageshadow="2"
     inkscape:zoom="1.40281"
     inkscape:cx="479.84779"
     inkscape:cy="453.72674"
     inkscape:current-layer="layer1"
     id="namedview4333"
     showgrid="false"
     inkscape:snap-global="false"
     inkscape:window-width="1920"
     inkscape:window-height="1152"
     inkscape:window-x="0"
     inkscape:window-y="0"
     inkscape:window-maximized="0" />
  <defs
     id="defs4331">
    <marker
       inkscape:stockid="Tail"
       orient="auto"
       refY="0.0"
       refX="0.0"
       id="Tail"
       style="overflow:visible">
      <g
         id="g5157"
         transform="scale(-1.2)">
        <path
           id="path5159"
           d="M -3.8048674,-3.9585227 L 0.54352094,0"
           style="fill:none;fill-rule:evenodd;stroke:#000000;stroke-width:0.8;marker-start:none;marker-end:none;stroke-linecap:round" />
        <path
           id="path5161"
           d="M -1.2866832,-3.9585227 L 3.0617053,0"
           style="fill:none;fill-rule:evenodd;stroke:#000000;stroke-width:0.8;marker-start:none;marker-end:none;stroke-linecap:round" />
        <path
           id="path5163"
           d="M 1.3053582,-3.9585227 L 5.6537466,0"
           style="fill:none;fill-rule:evenodd;stroke:#000000;stroke-width:0.8;marker-start:none;marker-end:none;stroke-linecap:round" />
        <path
           id="path5165"
           d="M -3.8048674,4.1775838 L 0.54352094,0.21974226"
           style="fill:none;fill-rule:evenodd;stroke:#000000;stroke-width:0.8;marker-start:none;marker-end:none;stroke-linecap:round" />
        <path
           id="path5167"
           d="M -1.2866832,4.1775838 L 3.0617053,0.21974226"
           style="fill:none;fill-rule:evenodd;stroke:#000000;stroke-width:0.8;marker-start:none;marker-end:none;stroke-linecap:round" />
        <path
           id="path5169"
           d="M 1.3053582,4.1775838 L 5.6537466,0.21974226"
           style="fill:none;fill-rule:evenodd;stroke:#000000;stroke-width:0.8;marker-start:none;marker-end:none;stroke-linecap:round" />
      </g>
    </marker>
    <marker
       inkscape:stockid="Arrow1Lend"
       orient="auto"
       refY="0.0"
       refX="0.0"
       id="Arrow1Lend"
       style="overflow:visible;">
      <path
         id="path5124"
         d="M 0.0,0.0 L 5.0,-5.0 L -12.5,0.0 L 5.0,5.0 L 0.0,0.0 z "
         style="fill-rule:evenodd;stroke:#000000;stroke-width:1.0pt;marker-start:none;"
         transform="scale(0.8) rotate(180) translate(12.5,0)" />
    </marker>
    <marker
       inkscape:stockid="Arrow1Lstart"
       orient="auto"
       refY="0.0"
       refX="0.0"
       id="Arrow1Lstart"
       style="overflow:visible">
      <path
         id="path5121"
         d="M 0.0,0.0 L 5.0,-5.0 L -12.5,0.0 L 5.0,5.0 L 0.0,0.0 z "
         style="fill-rule:evenodd;stroke:#000000;stroke-width:1.0pt;marker-start:none"
         transform="scale(0.8) translate(12.5,0)" />
    </marker>
    <marker
       inkscape:stockid="Arrow2Lend"
       orient="auto"
       refY="0.0"
       refX="0.0"
       id="Arrow2Lend"
       style="overflow:visible;">
      <path
         id="path5142"
         style="font-size:12.0;fill-rule:evenodd;stroke-width:0.62500000;stroke-linejoin:round;"
         d="M 8.7185878,4.0337352 L -2.2072895,0.016013256 L 8.7185884,-4.0017078 C 6.9730900,-1.6296469 6.9831476,1.6157441 8.7185878,4.0337352 z "
         transform="scale(1.1) rotate(180) translate(1,0)" />
    </marker>
    <marker
       inkscape:stockid="Arrow1Mend"
       orient="auto"
       refY="0.0"
       refX="0.0"
       id="Arrow1Mend"
       style="overflow:visible;">
      <path
         id="path5130"
         d="M 0.0,0.0 L 5.0,-5.0 L -12.5,0.0 L 5.0,5.0 L 0.0,0.0 z "
         style="fill-rule:evenodd;stroke:#000000;stroke-width:1.0pt;marker-start:none;"
         transform="scale(0.4) rotate(180) translate(10,0)" />
    </marker>
    <inkscape:perspective
       sodipodi:type="inkscape:persp3d"
       inkscape:vp_x="0 : 372.04724 : 1"
       inkscape:vp_y="0 : 1000 : 0"
       inkscape:vp_z="1052.3622 : 372.04724 : 1"
       inkscape:persp3d-origin="526.18109 : 248.03149 : 1"
       id="perspective4338" />
    <inkscape:perspective
       id="perspective6332"
       inkscape:persp3d-origin="0.5 : 0.33333333 : 1"
       inkscape:vp_z="1 : 0.5 : 1"
       inkscape:vp_y="0 : 1000 : 0"
       inkscape:vp_x="0 : 0.5 : 1"
       sodipodi:type="inkscape:persp3d" />
    <marker
       inkscape:stockid="Arrow2Lend"
       orient="auto"
       refY="0"
       refX="0"
       id="Arrow2Lend-7"
       style="overflow:visible">
      <path
         id="path5142-9"
         style="font-size:12px;fill-rule:evenodd;stroke-width:0.625;stroke-linejoin:round"
         d="M 8.7185878,4.0337352 -2.2072895,0.01601326 8.7185884,-4.0017078 c -1.7454984,2.3720609 -1.7354408,5.6174519 -6e-7,8.035443 z"
         transform="matrix(-1.1,0,0,-1.1,-1.1,0)" />
    </marker>
    <inkscape:perspective
       id="perspective6376"
       inkscape:persp3d-origin="0.5 : 0.33333333 : 1"
       inkscape:vp_z="1 : 0.5 : 1"
       inkscape:vp_y="0 : 1000 : 0"
       inkscape:vp_x="0 : 0.5 : 1"
       sodipodi:type="inkscape:persp3d" />
    <marker
       inkscape:stockid="Arrow2Lend"
       orient="auto"
       refY="0"
       refX="0"
       id="Arrow2Lend-8"
       style="overflow:visible">
      <path
         id="path5142-0"
         style="font-size:12px;fill-rule:evenodd;stroke-width:0.625;stroke-linejoin:round"
         d="M 8.7185878,4.0337352 -2.2072895,0.01601326 8.7185884,-4.0017078 c -1.7454984,2.3720609 -1.7354408,5.6174519 -6e-7,8.035443 z"
         transform="matrix(-1.1,0,0,-1.1,-1.1,0)" />
    </marker>
  </defs>
  <metadata
     id="metadata4335">
    <rdf:RDF>
      <cc:Work
         rdf:about="">
        <dc:format>image/svg+xml</dc:format>
        <dc:type
           rdf:resource="http://purl.org/dc/dcmitype/StillImage" />
        <dc:title />
      </cc:Work>
    </rdf:RDF>
  </metadata>
  <g
     inkscape:label="Layer 1"
     inkscape:groupmode="layer"
     id="layer1">
    <path
       sodipodi:type="arc"
       style="fill:#646464;fill-opacity:0.39215687;fill-rule:nonzero;stroke:#000000;stroke-width:1.70787405999999997;stroke-miterlimit:4;stroke-opacity:1;stroke-dasharray:none"
       id="path4344"
       sodipodi:cx="531.60107"
       sodipodi:cy="316.90189"
       sodipodi:rx="61.027512"
       sodipodi:ry="61.027512"
       d="m 592.62859,316.90189 a 61.027512,61.027512 0 1 1 -122.05503,0 61.027512,61.027512 0 1 1 122.05503,0 z"
       transform="translate(-58.821698,-60.292241)" />
    <path
       inkscape:connector-curvature="0"
       style="fill:none;stroke:#000000;stroke-width:1px;stroke-linecap:butt;stroke-linejoin:miter;stroke-opacity:1;marker-start:url(#Arrow1Lstart);marker-end:url(#Arrow1Lend)"
       d="m 595.48897,457.3387 -310.697,0 0,-295.57903"
       id="path4340" />
    <path
       style="fill:none;stroke:#000000;stroke-width:2.06220472;stroke-linecap:butt;stroke-linejoin:miter;stroke-opacity:1;stroke-miterlimit:4;stroke-dasharray:none;marker-end:url(#Arrow2Lend)"
       d="M 285.28524,457.3387 472.04413,255.87439"
       id="path4342" />
    <path
       style="fill:none;stroke:#000000;stroke-width:2.06220484;stroke-linecap:butt;stroke-linejoin:miter;stroke-miterlimit:4;stroke-opacity:1;stroke-dasharray:none;marker-end:url(#Arrow2Lend)"
       d="M 473.27632,253.35259 450.25713,204.2218"
       id="path4342-3"
       sodipodi:nodetypes="cc"
       inkscape:connector-curvature="0" />
    <text
       xml:space="preserve"
       style="font-size:34.02423096px;font-style:normal;font-variant:normal;font-weight:normal;font-stretch:normal;text-align:start;line-height:125%;writing-mode:lr-tb;text-anchor:start;fill:#000000;fill-opacity:1;stroke:none;font-family:Didot;-inkscape-font-specification:Didot"
       x="605.78503"
       y="468.33096"
       id="text6360"
       sodipodi:linespacing="125%"><tspan
         sodipodi:role="line"
         id="tspan6362"
         x="605.78503"
         y="468.33096"
         style="font-size:30.6218071px">Re</tspan></text>
    <text
       xml:space="preserve"
       style="font-size:32.76910782px;font-style:normal;font-variant:normal;font-weight:normal;font-stretch:normal;text-align:start;line-height:125%;writing-mode:lr-tb;text-anchor:start;fill:#000000;fill-opacity:1;stroke:none;font-family:Didot;-inkscape-font-specification:Didot"
       x="267.72388"
       y="150.08276"
       id="text6364"
       sodipodi:linespacing="125%"><tspan
         sodipodi:role="line"
         id="tspan6366"
         x="267.72388"
         y="150.08276"
         style="font-size:29.49219513px">Im</tspan></text>
    <path
       style="fill:none;stroke:#000000;stroke-width:2.06220484;stroke-linecap:butt;stroke-linejoin:miter;stroke-miterlimit:4;stroke-opacity:1;stroke-dasharray:none;marker-start:url(#Arrow1Lstart);marker-end:none"
       d="M 446.09424,204.8418 286.30098,456.20086"
       id="path4342-2"
       sodipodi:nodetypes="cc"
       inkscape:connector-curvature="0" />
    <g
       transform="matrix(0.70125027,0,0,0.70125027,197.91897,114.42496)"
       id="g4833">
      <g
         style="font-style:normal;font-variant:normal;font-weight:normal;font-stretch:normal;letter-spacing:normal;word-spacing:normal;text-anchor:start;fill:none;stroke:#000000;stroke-width:1.42602444;stroke-linecap:butt;stroke-linejoin:miter;stroke-miterlimit:10.43299961;stroke-opacity:1;stroke-dasharray:none;stroke-dashoffset:0"
         id="content"
         transform="matrix(1.0629921,0,0,-1.0629921,-186.02362,789.27165)"
         xml:space="preserve"
         stroke-miterlimit="10.433"
         font-style="normal"
         font-variant="normal"
         font-weight="normal"
         font-stretch="normal"
         font-size-adjust="none"
         letter-spacing="normal"
         word-spacing="normal"><path
           style="fill:#000000;stroke-width:0"
           inkscape:connector-curvature="0"
           d="m 470.61,422.39 h 4.83 c 3.75,0 4.14,-0.8 4.14,-2.24 0,-0.36 0,-0.95 -0.34,-2.44 -0.11,-0.25 -0.16,-0.45 -0.16,-0.56 0,-0.39 0.3,-0.59 0.6,-0.59 0.5,0 0.5,0.15 0.75,1.05 l 2.75,10.81 c 0.14,0.54 0.14,0.65 0.14,0.79 0,0.1 -0.1,0.55 -0.6,0.55 -0.5,0 -0.54,-0.25 -0.75,-1.05 -1.04,-3.87 -2.18,-4.78 -6.42,-4.78 h -4.53 l 3.19,12.66 c 0.43,1.75 0.5,1.94 2.68,1.94 h 6.58 c 6.13,0 7.27,-1.64 7.27,-5.47 0,-1.16 0,-1.35 -0.14,-2.7 -0.11,-0.65 -0.11,-0.74 -0.11,-0.9 0,-0.25 0.15,-0.59 0.61,-0.59 0.54,0 0.59,0.3 0.69,1.25 l 1,8.61 c 0.15,1.34 -0.1,1.34 -1.35,1.34 h -24.4 c -1,0 -1.5,0 -1.5,-1 0,-0.54 0.45,-0.54 1.39,-0.54 1.84,0 3.23,0 3.23,-0.89 0,-0.21 0,-0.3 -0.25,-1.21 l -6.56,-26.34 c -0.5,-1.95 -0.61,-2.34 -4.55,-2.34 -0.84,0 -1.39,0 -1.39,-0.96 0,-0.59 0.59,-0.59 0.75,-0.59 1.44,0 5.13,0.16 6.58,0.16 1.64,0 5.78,-0.16 7.42,-0.16 0.45,0 1.05,0 1.05,0.95 0,0.39 -0.3,0.49 -0.3,0.55 -0.16,0.05 -0.25,0.05 -1.39,0.05 -1.11,0 -1.36,0 -2.59,0.09 -1.46,0.16 -1.6,0.36 -1.6,1 0,0.09 0,0.41 0.19,1.14 z"
           id="path4836" /><path
           style="fill:#000000;stroke-width:0"
           inkscape:connector-curvature="0"
           d="m 498.86,420.54 -0.01,0.05 0,0.06 -0.01,0.05 -0.01,0.06 -0.01,0.05 -0.01,0.06 -0.02,0.05 -0.02,0.06 -0.02,0.06 -0.02,0.05 -0.03,0.06 -0.03,0.05 -0.03,0.06 -0.04,0.05 -0.04,0.05 -0.04,0.05 -0.04,0.05 -0.05,0.05 -0.05,0.04 -0.05,0.05 -0.06,0.04 -0.06,0.03 -0.06,0.04 -0.07,0.03 -0.06,0.03 -0.08,0.03 -0.07,0.02 -0.08,0.02 -0.08,0.01 -0.08,0.01 -0.09,0.01 -0.09,0 c -0.94,0 -1.95,-0.91 -1.95,-1.92 0,-0.59 0.45,-1.33 1.4,-1.33 1,0 1.96,0.99 1.96,1.92 z"
           id="path4838" /><path
           style="fill:#000000;stroke-width:0"
           inkscape:connector-curvature="0"
           d="m 491.75,402.84 -0.06,-0.17 -0.05,-0.17 -0.03,-0.08 -0.02,-0.09 -0.03,-0.08 -0.02,-0.09 -0.02,-0.09 -0.02,-0.09 -0.02,-0.1 -0.02,-0.09 -0.01,-0.1 0,-0.05 -0.01,-0.05 0,-0.06 0,-0.05 -0.01,-0.05 0,-0.06 c 0,-1.64 1.39,-2.95 3.3,-2.95 3.48,0 5.03,4.79 5.03,5.33 0,0.45 -0.45,0.45 -0.56,0.45 -0.49,0 -0.53,-0.2 -0.67,-0.59 -0.8,-2.79 -2.33,-4.22 -3.69,-4.22 -0.7,0 -0.88,0.45 -0.88,1.22 0,0.79 0.25,1.46 0.57,2.23 0.34,0.94 0.73,1.87 1.11,2.78 0.31,0.84 1.57,4.02 1.72,4.44 0.09,0.34 0.2,0.76 0.2,1.11 0,1.64 -1.39,2.95 -3.31,2.95 -3.46,0 -5.05,-4.73 -5.05,-5.33 0,-0.45 0.48,-0.45 0.59,-0.45 0.49,0 0.52,0.17 0.63,0.56 0.9,3 2.44,4.25 3.72,4.25 0.56,0 0.87,-0.28 0.87,-1.22 0,-0.79 -0.2,-1.32 -1.08,-3.48 z"
           id="path4840" /><path
           style="fill:#000000;stroke-width:0"
           inkscape:connector-curvature="0"
           d="m 516.9,420.54 -0.01,0.06 0,0.06 -0.01,0.05 -0.01,0.06 -0.01,0.06 -0.01,0.06 -0.02,0.05 -0.02,0.06 -0.02,0.06 -0.03,0.05 -0.03,0.06 -0.03,0.05 -0.03,0.06 -0.04,0.05 -0.04,0.05 -0.04,0.05 -0.04,0.05 -0.05,0.04 -0.05,0.05 -0.05,0.04 -0.06,0.04 -0.06,0.03 -0.06,0.04 -0.06,0.03 -0.07,0.02 -0.07,0.03 -0.07,0.02 -0.08,0.02 -0.08,0.01 -0.08,0.01 -0.08,0.01 -0.09,0 c -1.01,0 -1.95,-0.98 -1.95,-1.92 0,-0.56 0.42,-1.33 1.39,-1.33 0.94,0 1.96,0.91 1.96,1.92 z"
           id="path4842" /><path
           style="fill:#000000;stroke-width:0"
           inkscape:connector-curvature="0"
           d="m 509.5,397.06 -0.06,-0.23 -0.06,-0.22 -0.08,-0.22 -0.08,-0.21 -0.08,-0.21 -0.1,-0.21 -0.09,-0.21 -0.11,-0.2 -0.11,-0.19 -0.12,-0.19 -0.12,-0.19 -0.13,-0.18 -0.13,-0.17 -0.14,-0.17 -0.14,-0.16 -0.14,-0.15 -0.15,-0.15 -0.16,-0.14 -0.16,-0.13 -0.16,-0.13 -0.16,-0.11 -0.17,-0.11 -0.17,-0.1 -0.18,-0.09 -0.18,-0.08 -0.18,-0.07 -0.18,-0.06 -0.18,-0.05 -0.19,-0.04 -0.19,-0.03 -0.19,-0.02 -0.19,0 c -0.45,0 -0.88,0.06 -1.27,0.2 0.91,0.42 1.19,1.25 1.19,1.78 0,0.83 -0.65,1.28 -1.36,1.28 -1.08,0 -1.98,-0.94 -1.98,-2.04 0,-1.33 1.36,-2.21 3.45,-2.21 2.09,0 6.16,1.25 7.25,5.5 l 3.13,12.49 c 0.1,0.37 0.17,0.68 0.17,1.22 0,1.9 -1.63,3.26 -3.72,3.26 -3.88,0 -6.09,-4.84 -6.09,-5.33 0,-0.45 0.48,-0.45 0.59,-0.45 0.41,0 0.45,0.11 0.69,0.62 0.87,2.04 2.68,4.19 4.7,4.19 0.88,0 1.19,-0.59 1.19,-1.7 0,-0.39 -0.06,-0.88 -0.11,-1.05 z"
           id="path4844" /></g>    </g>
    <g
       transform="matrix(0.70125027,0,0,0.70125027,112.48765,49.756988)"
       id="g4944">
      <g
         style="font-style:normal;font-variant:normal;font-weight:normal;font-stretch:normal;letter-spacing:normal;word-spacing:normal;text-anchor:start;fill:none;stroke:#000000;stroke-width:1.42602444;stroke-linecap:butt;stroke-linejoin:miter;stroke-miterlimit:10.43299961;stroke-opacity:1;stroke-dasharray:none;stroke-dashoffset:0"
         word-spacing="normal"
         letter-spacing="normal"
         font-size-adjust="none"
         font-stretch="normal"
         font-weight="normal"
         font-variant="normal"
         font-style="normal"
         stroke-miterlimit="10.433"
         xml:space="preserve"
         transform="matrix(1.0629921,0,0,-1.0629921,-186.02362,789.27165)"
         id="g4946"><polygon
           style="fill:#000000;stroke-width:0"
           id="polygon4948"
           points="484.87,445.71 485.76,446.6 479.13,453.38 472.46,446.6 473.35,445.71 479.13,450.79 " /><path
           style="fill:#000000;stroke-width:0"
           inkscape:connector-curvature="0"
           id="path4950"
           d="m 470.61,422.39 h 4.83 c 3.75,0 4.14,-0.8 4.14,-2.24 0,-0.36 0,-0.95 -0.34,-2.44 -0.11,-0.25 -0.16,-0.45 -0.16,-0.56 0,-0.39 0.3,-0.59 0.6,-0.59 0.5,0 0.5,0.15 0.75,1.05 l 2.75,10.81 c 0.14,0.54 0.14,0.65 0.14,0.79 0,0.1 -0.1,0.55 -0.6,0.55 -0.5,0 -0.54,-0.25 -0.75,-1.05 -1.04,-3.87 -2.18,-4.78 -6.42,-4.78 h -4.53 l 3.19,12.66 c 0.43,1.75 0.5,1.94 2.68,1.94 h 6.58 c 6.13,0 7.27,-1.64 7.27,-5.47 0,-1.16 0,-1.35 -0.14,-2.7 -0.11,-0.65 -0.11,-0.74 -0.11,-0.9 0,-0.25 0.15,-0.59 0.61,-0.59 0.54,0 0.59,0.3 0.69,1.25 l 1,8.61 c 0.15,1.34 -0.1,1.34 -1.35,1.34 h -24.4 c -1,0 -1.5,0 -1.5,-1 0,-0.54 0.45,-0.54 1.39,-0.54 1.84,0 3.23,0 3.23,-0.89 0,-0.21 0,-0.3 -0.25,-1.21 l -6.56,-26.34 c -0.5,-1.95 -0.61,-2.34 -4.55,-2.34 -0.84,0 -1.39,0 -1.39,-0.96 0,-0.59 0.59,-0.59 0.75,-0.59 1.44,0 5.13,0.16 6.58,0.16 1.64,0 5.78,-0.16 7.42,-0.16 0.45,0 1.05,0 1.05,0.95 0,0.39 -0.3,0.49 -0.3,0.55 -0.16,0.05 -0.25,0.05 -1.39,0.05 -1.11,0 -1.36,0 -2.59,0.09 -1.46,0.16 -1.6,0.36 -1.6,1 0,0.09 0,0.41 0.19,1.14 z" /><path
           style="fill:#000000;stroke-width:0"
           inkscape:connector-curvature="0"
           id="path4952"
           d="m 498.86,420.54 -0.01,0.05 0,0.06 -0.01,0.05 -0.01,0.06 -0.01,0.05 -0.01,0.06 -0.02,0.05 -0.02,0.06 -0.02,0.06 -0.02,0.05 -0.03,0.06 -0.03,0.05 -0.03,0.06 -0.04,0.05 -0.04,0.05 -0.04,0.05 -0.04,0.05 -0.05,0.05 -0.05,0.04 -0.05,0.05 -0.06,0.04 -0.06,0.03 -0.06,0.04 -0.07,0.03 -0.06,0.03 -0.08,0.03 -0.07,0.02 -0.08,0.02 -0.08,0.01 -0.08,0.01 -0.09,0.01 -0.09,0 c -0.94,0 -1.95,-0.91 -1.95,-1.92 0,-0.59 0.45,-1.33 1.4,-1.33 1,0 1.96,0.99 1.96,1.92 z" /><path
           style="fill:#000000;stroke-width:0"
           inkscape:connector-curvature="0"
           id="path4954"
           d="m 491.75,402.84 -0.06,-0.17 -0.05,-0.17 -0.03,-0.08 -0.02,-0.09 -0.03,-0.08 -0.02,-0.09 -0.02,-0.09 -0.02,-0.09 -0.02,-0.1 -0.02,-0.09 -0.01,-0.1 0,-0.05 -0.01,-0.05 0,-0.06 0,-0.05 -0.01,-0.05 0,-0.06 c 0,-1.64 1.39,-2.95 3.3,-2.95 3.48,0 5.03,4.79 5.03,5.33 0,0.45 -0.45,0.45 -0.56,0.45 -0.49,0 -0.53,-0.2 -0.67,-0.59 -0.8,-2.79 -2.33,-4.22 -3.69,-4.22 -0.7,0 -0.88,0.45 -0.88,1.22 0,0.79 0.25,1.46 0.57,2.23 0.34,0.94 0.73,1.87 1.11,2.78 0.31,0.84 1.57,4.02 1.72,4.44 0.09,0.34 0.2,0.76 0.2,1.11 0,1.64 -1.39,2.95 -3.31,2.95 -3.46,0 -5.05,-4.73 -5.05,-5.33 0,-0.45 0.48,-0.45 0.59,-0.45 0.49,0 0.52,0.17 0.63,0.56 0.9,3 2.44,4.25 3.72,4.25 0.56,0 0.87,-0.28 0.87,-1.22 0,-0.79 -0.2,-1.32 -1.08,-3.48 z" /><path
           style="fill:#000000;stroke-width:0"
           inkscape:connector-curvature="0"
           id="path4956"
           d="m 516.9,420.54 -0.01,0.06 0,0.06 -0.01,0.05 -0.01,0.06 -0.01,0.06 -0.01,0.06 -0.02,0.05 -0.02,0.06 -0.02,0.06 -0.03,0.05 -0.03,0.06 -0.03,0.05 -0.03,0.06 -0.04,0.05 -0.04,0.05 -0.04,0.05 -0.04,0.05 -0.05,0.04 -0.05,0.05 -0.05,0.04 -0.06,0.04 -0.06,0.03 -0.06,0.04 -0.06,0.03 -0.07,0.02 -0.07,0.03 -0.07,0.02 -0.08,0.02 -0.08,0.01 -0.08,0.01 -0.08,0.01 -0.09,0 c -1.01,0 -1.95,-0.98 -1.95,-1.92 0,-0.56 0.42,-1.33 1.39,-1.33 0.94,0 1.96,0.91 1.96,1.92 z" /><path
           style="fill:#000000;stroke-width:0"
           inkscape:connector-curvature="0"
           id="path4958"
           d="m 509.5,397.06 -0.06,-0.23 -0.06,-0.22 -0.08,-0.22 -0.08,-0.21 -0.08,-0.21 -0.1,-0.21 -0.09,-0.21 -0.11,-0.2 -0.11,-0.19 -0.12,-0.19 -0.12,-0.19 -0.13,-0.18 -0.13,-0.17 -0.14,-0.17 -0.14,-0.16 -0.14,-0.15 -0.15,-0.15 -0.16,-0.14 -0.16,-0.13 -0.16,-0.13 -0.16,-0.11 -0.17,-0.11 -0.17,-0.1 -0.18,-0.09 -0.18,-0.08 -0.18,-0.07 -0.18,-0.06 -0.18,-0.05 -0.19,-0.04 -0.19,-0.03 -0.19,-0.02 -0.19,0 c -0.45,0 -0.88,0.06 -1.27,0.2 0.91,0.42 1.19,1.25 1.19,1.78 0,0.83 -0.65,1.28 -1.36,1.28 -1.08,0 -1.98,-0.94 -1.98,-2.04 0,-1.33 1.36,-2.21 3.45,-2.21 2.09,0 6.16,1.25 7.25,5.5 l 3.13,12.49 c 0.1,0.37 0.17,0.68 0.17,1.22 0,1.9 -1.63,3.26 -3.72,3.26 -3.88,0 -6.09,-4.84 -6.09,-5.33 0,-0.45 0.48,-0.45 0.59,-0.45 0.41,0 0.45,0.11 0.69,0.62 0.87,2.04 2.68,4.19 4.7,4.19 0.88,0 1.19,-0.59 1.19,-1.7 0,-0.39 -0.06,-0.88 -0.11,-1.05 z" /></g>    </g>
    <g
       id="g3095"
       transform="matrix(0.68446171,0,0,0.68446171,263.6845,-12.852696)">
      <g
         word-spacing="normal"
         letter-spacing="normal"
         font-size-adjust="none"
         font-stretch="normal"
         font-weight="normal"
         font-variant="normal"
         font-style="normal"
         stroke-miterlimit="10.433"
         xml:space="preserve"
         transform="matrix(1.0629921,0,0,-1.0629921,-186.02362,789.27165)"
         id="g3097"
         style="font-style:normal;font-variant:normal;font-weight:normal;font-stretch:normal;letter-spacing:normal;word-spacing:normal;text-anchor:start;fill:none;stroke:#000000;stroke-linecap:butt;stroke-linejoin:miter;stroke-miterlimit:10.43299961;stroke-opacity:1;stroke-dasharray:none;stroke-dashoffset:0"><path
           id="path3099"
           d="m 460.38,408.94 -0.01,-0.07 -0.02,-0.08 -0.01,-0.07 -0.02,-0.08 -0.03,-0.16 -0.04,-0.16 -0.04,-0.16 -0.03,-0.16 -0.04,-0.16 -0.04,-0.16 -0.01,-0.08 -0.02,-0.07 -0.02,-0.07 -0.01,-0.07 -0.02,-0.07 -0.01,-0.07 -0.01,-0.06 -0.02,-0.06 -0.01,-0.05 -0.01,-0.06 -0.01,-0.05 0,-0.04 -0.01,-0.04 0,-0.04 -0.01,-0.03 0,-0.02 c 0,-0.9 0.7,-1.35 1.45,-1.35 0.6,0 1.5,0.4 1.84,1.4 0.05,0.1 0.65,2.44 0.95,3.68 l 1.1,4.49 c 0.29,1.09 0.59,2.19 0.84,3.34 0.2,0.84 0.6,2.28 0.65,2.48 0.75,1.55 3.39,6.08 8.12,6.08 2.24,0 2.69,-1.84 2.69,-3.49 0,-3.08 -2.44,-9.46 -3.24,-11.6 -0.45,-1.15 -0.5,-1.74 -0.5,-2.29 0,-2.34 1.75,-4.09 4.09,-4.09 4.68,0 6.52,7.28 6.52,7.67 0,0.5 -0.44,0.5 -0.6,0.5 -0.49,0 -0.49,-0.15 -0.74,-0.89 -1,-3.39 -2.64,-6.18 -5.08,-6.18 -0.85,0 -1.2,0.5 -1.2,1.64 0,1.25 0.45,2.44 0.9,3.54 0.94,2.64 3.04,8.12 3.04,10.96 0,3.33 -2.15,5.33 -5.73,5.33 -4.48,0 -6.92,-3.19 -7.77,-4.34 -0.25,2.79 -2.3,4.34 -4.58,4.34 -2.3,0 -3.24,-1.95 -3.74,-2.84 -0.8,-1.7 -1.49,-4.63 -1.49,-4.83 0,-0.5 0.49,-0.5 0.59,-0.5 0.5,0 0.55,0.05 0.85,1.14 0.84,3.54 1.84,5.93 3.64,5.93 0.99,0 1.54,-0.65 1.54,-2.29 0,-1.04 -0.15,-1.59 -0.8,-4.18 z"
           inkscape:connector-curvature="0"
           style="fill:#000000;stroke-width:0" /><path
           id="path3101"
           d="m 496.3,420.79 0,0.06 -0.01,0.05 0,0.05 -0.01,0.06 -0.01,0.06 -0.02,0.05 -0.01,0.06 -0.02,0.06 -0.03,0.05 -0.02,0.06 -0.03,0.05 -0.03,0.06 -0.03,0.05 -0.03,0.05 -0.04,0.05 -0.04,0.05 -0.05,0.05 -0.04,0.05 -0.05,0.04 -0.06,0.05 -0.05,0.04 -0.06,0.03 -0.06,0.04 -0.07,0.03 -0.07,0.03 -0.07,0.02 -0.07,0.02 -0.08,0.02 -0.08,0.02 -0.08,0.01 -0.09,0 -0.09,0.01 c -0.94,0 -1.95,-0.91 -1.95,-1.92 0,-0.59 0.45,-1.32 1.39,-1.32 1.02,0 1.96,0.97 1.96,1.91 z"
           inkscape:connector-curvature="0"
           style="fill:#000000;stroke-width:0" /><path
           id="path3103"
           d="m 489.18,403.08 -0.05,-0.17 -0.05,-0.17 -0.03,-0.08 -0.03,-0.09 -0.02,-0.08 -0.03,-0.09 -0.02,-0.09 -0.02,-0.09 -0.01,-0.1 -0.02,-0.09 -0.01,-0.1 -0.01,-0.05 0,-0.05 0,-0.05 -0.01,-0.06 0,-0.05 0,-0.06 c 0,-1.63 1.4,-2.96 3.31,-2.96 3.49,0 5.02,4.81 5.02,5.33 0,0.46 -0.45,0.46 -0.56,0.46 -0.48,0 -0.52,-0.21 -0.66,-0.59 -0.8,-2.79 -2.33,-4.22 -3.69,-4.22 -0.7,0 -0.88,0.45 -0.88,1.22 0,0.8 0.25,1.46 0.56,2.23 0.35,0.94 0.74,1.88 1.12,2.79 0.31,0.84 1.57,4.01 1.71,4.43 0.1,0.34 0.21,0.77 0.21,1.11 0,1.64 -1.4,2.97 -3.31,2.97 -3.46,0 -5.06,-4.74 -5.06,-5.34 0,-0.45 0.49,-0.45 0.59,-0.45 0.49,0 0.52,0.17 0.63,0.56 0.91,2.99 2.44,4.25 3.73,4.25 0.56,0 0.87,-0.28 0.87,-1.22 0,-0.8 -0.21,-1.32 -1.08,-3.48 z"
           inkscape:connector-curvature="0"
           style="fill:#000000;stroke-width:0" /><path
           id="path3105"
           d="m 514.31,420.79 0,0.06 -0.01,0.06 0,0.05 -0.01,0.06 -0.01,0.06 -0.02,0.06 -0.02,0.05 -0.02,0.06 -0.02,0.06 -0.03,0.05 -0.02,0.06 -0.03,0.05 -0.04,0.06 -0.03,0.05 -0.04,0.05 -0.05,0.05 -0.04,0.04 -0.05,0.05 -0.05,0.04 -0.05,0.04 -0.06,0.04 -0.06,0.04 -0.06,0.03 -0.06,0.03 -0.07,0.03 -0.07,0.03 -0.07,0.02 -0.08,0.01 -0.07,0.02 -0.09,0.01 -0.08,0 -0.09,0.01 c -1.01,0 -1.95,-0.98 -1.95,-1.92 0,-0.56 0.42,-1.32 1.39,-1.32 0.95,0 1.96,0.9 1.96,1.91 z"
           inkscape:connector-curvature="0"
           style="fill:#000000;stroke-width:0" /><path
           id="path3107"
           d="m 506.91,397.29 -0.05,-0.22 -0.07,-0.22 -0.07,-0.22 -0.08,-0.22 -0.09,-0.21 -0.09,-0.21 -0.1,-0.2 -0.11,-0.2 -0.11,-0.2 -0.12,-0.19 -0.12,-0.19 -0.13,-0.18 -0.13,-0.17 -0.14,-0.17 -0.14,-0.16 -0.14,-0.15 -0.16,-0.15 -0.15,-0.14 -0.16,-0.13 -0.16,-0.13 -0.17,-0.12 -0.17,-0.1 -0.17,-0.1 -0.18,-0.09 -0.17,-0.08 -0.18,-0.07 -0.19,-0.07 -0.18,-0.05 -0.19,-0.03 -0.19,-0.03 -0.19,-0.02 -0.19,-0.01 c -0.46,0 -0.87,0.07 -1.26,0.21 0.91,0.42 1.19,1.26 1.19,1.78 0,0.84 -0.67,1.29 -1.36,1.29 -1.08,0 -1.99,-0.94 -1.99,-2.06 0,-1.32 1.36,-2.19 3.45,-2.19 2.09,0 6.17,1.25 7.25,5.5 l 3.14,12.49 c 0.11,0.38 0.18,0.7 0.18,1.22 0,1.92 -1.64,3.28 -3.73,3.28 -3.88,0 -6.11,-4.85 -6.11,-5.34 0,-0.45 0.49,-0.45 0.6,-0.45 0.42,0 0.45,0.11 0.69,0.62 0.88,2.03 2.69,4.19 4.71,4.19 0.87,0 1.19,-0.59 1.19,-1.71 0,-0.38 -0.07,-0.87 -0.11,-1.05 z"
           inkscape:connector-curvature="0"
           style="fill:#000000;stroke-width:0" /></g>    </g>
  </g>
</svg>
